<?xml version="1.0" encoding="UTF-8" standalone="no"?>
<svg
   xmlns:dc="http://purl.org/dc/elements/1.1/"
   xmlns:cc="http://creativecommons.org/ns#"
   xmlns:rdf="http://www.w3.org/1999/02/22-rdf-syntax-ns#"
   xmlns:svg="http://www.w3.org/2000/svg"
   xmlns="http://www.w3.org/2000/svg"
   xmlns:xlink="http://www.w3.org/1999/xlink"
   xmlns:sodipodi="http://sodipodi.sourceforge.net/DTD/sodipodi-0.dtd"
   xmlns:inkscape="http://www.inkscape.org/namespaces/inkscape"
   id="layout_svg"
   width="500"
   height="640"
   viewBox="0 0 500 640"
   version="1.1"
   inkscape:version="0.91 r13725"
   sodipodi:docname="layout.svg">
  <metadata
     id="metadata3464">
    <rdf:RDF>
      <cc:Work
         rdf:about="">
        <dc:format>image/svg+xml</dc:format>
        <dc:type
           rdf:resource="http://purl.org/dc/dcmitype/StillImage" />
        <dc:title />
      </cc:Work>
    </rdf:RDF>
  </metadata>
  <sodipodi:namedview
     pagecolor="#ffffff"
     bordercolor="#666666"
     borderopacity="1"
     objecttolerance="10"
     gridtolerance="10000"
     guidetolerance="10"
     inkscape:pageopacity="0"
     inkscape:pageshadow="2"
     inkscape:window-width="1920"
     inkscape:window-height="1056"
     id="namedview3462"
     showgrid="true"
     inkscape:snap-grids="true"
     inkscape:snap-page="false"
     inkscape:zoom="2"
     inkscape:cx="36.987832"
     inkscape:cy="513.36437"
     inkscape:window-x="0"
     inkscape:window-y="24"
     inkscape:window-maximized="1"
     inkscape:current-layer="layout_svg"
     inkscape:snap-path-clip="true"
     inkscape:snap-global="true"
     inkscape:snap-to-guides="true"
     inkscape:object-nodes="true"
     inkscape:snap-bbox="true"
     inkscape:bbox-nodes="true"
     inkscape:snap-bbox-edge-midpoints="true"
     inkscape:snap-midpoints="true"
     inkscape:snap-intersection-paths="true"
     inkscape:bbox-paths="false">
    <inkscape:grid
       dotted="false"
       type="xygrid"
       id="grid4639"
       snapvisiblegridlinesonly="false"
       spacingx="0.25"
       spacingy="0.25" />
  </sodipodi:namedview>
  <defs
     id="defs4261">
    <inkscape:perspective
       sodipodi:type="inkscape:persp3d"
       inkscape:vp_x="0 : 319.5 : 1"
       inkscape:vp_y="0 : 1000 : 0"
       inkscape:vp_z="294.18498 : 364.69587 : 1"
       inkscape:persp3d-origin="250 : 213 : 1"
       id="perspective4333" />
    <g id="tobira" class="tobira">
      <rect
         inkscape:label="#rect4349-6-1-7"
         height="4"
         width="41"
         id="tobira-a"
         style="stroke-width:2;" />
      <path
         inkscape:label="#path4351-6-7"
         sodipodi:nodetypes="ccc"
         inkscape:connector-curvature="0"
         id="tobira-b"
         d="m 40,4 -5,18 -5,-18"
         style="stroke-width:1.2;" />
    </g>
    <g id="door" class="door">
      <path
         d="m 366,417 c 1.71242,-22.07475 12.39394,-33.90399 39,-38 l 0,37"
         style="fill-rule:evenodd;stroke-width:1.5;stroke-linecap:butt;stroke-linejoin:miter;stroke-miterlimit:4;stroke-dasharray:none;stroke-opacity:1"
         id="path4268" />
      <rect
         style="stroke-width:2;stroke-miterlimit:0;stroke-dasharray:none;stroke-opacity:1"
         width="41"
         height="4"
         x="365"
         y="417"
         inkscape:label="#rect4349-6-1-7"
         id="rect4270" />
    </g>
    <g id="aircon_svg" class="interactive">
      <rect
         rx="5"
         ry="5"
         width="110"
         height="40"
         style="fill:none;stroke-width:3;"
         id="rect3424" />
      <line
         stroke-width="2"
         x1="20"
         y1="25"
         x2="90"
         y2="25"
         id="line3426" />
      <line
         stroke-width="2"
         x1="20"
         y1="29"
         x2="90"
         y2="29"
         id="line3428" />
      <line
         stroke-width="2"
         x1="20"
         y1="33"
         x2="90"
         y2="33"
         id="line3430" />
      <line
         stroke-width="2"
         x1="20"
         y1="33"
         x2="15"
         y2="40"
         id="line3432" />
      <line
         stroke-width="2"
         x1="90"
         y1="33"
         x2="95"
         y2="40"
         id="line3434" />
    </g>
  </defs>
  <g
     id="g4152">
    <title
       id="title3438">Layer 1</title>
    <g id="kitchen" class="misc">
      <rect
         style="stroke-width:2;stroke-miterlimit:0;stroke-dasharray:none;stroke-opacity:1"
         width="99.370728"
         height="32"
         x="27.533306"
         y="434"
         rx="0"
         ry="0" />
      <rect
         style="stroke-width:2;stroke-miterlimit:0;stroke-dasharray:none;stroke-opacity:1"
         width="41"
         height="23.034332"
         x="77"
         y="439" />
    </g>
    <path
       class="window"
       d="m 22,473 0,98"
       id="window1" />
    <path
       class="window"
       d="m 125,627 49,0"
       id="window2" />
    <path
       class="window"
       d="m 369,627 34,0"
       id="window3" />
    <path
       class="window"
       d="m 336.5,106.99999 95.5,0"
       id="window5" />
    <path
       class="window"
       d="M 76.999998,107 279,107"
       id="window4" />
    <g id="tatami"
       class="misc"
       style="stroke-width:1;stroke-linecap:butt;stroke-linejoin:miter;stroke-miterlimit:4;stroke-dasharray:none;stroke-opacity:1">
      <path d="m 229,110 0,203.99999" />
      <path d="m 281.72472,159.8713 0,104.1287" />
      <path d="m 330.5,159.8713 -101.5,0" />
      <path d="m 330.5,264 c -34.09832,0.26005 -67.90151,0.23978 -101.5,0" />
      <path d="m 229.00001,212.00001 -48,0" />
    </g>
    <g id="toilet" class="misc">
      <path
         style="stroke-width:1px;stroke-linecap:butt;stroke-linejoin:miter;stroke-opacity:1"
         d="m 294.5,506.5 0,-17.5 c -6.7549,-16.28956 -21.456,-12.68021 -25.85434,0.25" />
      <path
         style="stroke-width:1px;stroke-linecap:butt;stroke-linejoin:miter;stroke-opacity:1"
         d="m 268.5,507 26,0 0,11.5 -26,0 z"
         inkscape:connector-curvature="0"
         sodipodi:nodetypes="ccccc" />
      <path
         style="stroke-width:1px;stroke-linecap:butt;stroke-linejoin:miter;stroke-opacity:1"
         d="M 268.5,506.5 268.69575,489"
         inkscape:connector-curvature="0"
         sodipodi:nodetypes="cc" />
    </g>
    <g id="sink" class="misc">
      <path
         style="stroke-width:1px;stroke-linecap:butt;stroke-linejoin:miter;stroke-opacity:1"
         d="m 310,427.25 15.31019,0.0367 c 31.46078,5.91719 18.88575,36.13966 -0.31019,34.41663 l -15,0.0467"
         inkscape:connector-curvature="0"
         sodipodi:nodetypes="cccc" />
      <ellipse
         style="stroke-width:1.62443316;stroke-miterlimit:4;stroke-dasharray:none;stroke-opacity:1"
         cx="326.47601"
         cy="444.95413"
         rx="11.246105"
         ry="13.335687" />
      <ellipse
         style="fill:gray;fill-opacity:1;stroke:none;stroke-width:1.5;stroke-miterlimit:4;stroke-dasharray:none;stroke-opacity:1"
         cx="318.5"
         cy="444.5"
         rx="3.25"
         ry="2.8489685" />
    </g>
    <g id="bath" class="misc">
      <path
         style="stroke-width:1px;stroke-linecap:butt;stroke-linejoin:miter;stroke-opacity:1"
         d="m 321.36432,587.6233 c -6.20391,7.24381 -10.18248,26.3165 0,31.28945 23.76046,4.33477 49.09482,4.00641 75.63568,0"
         inkscape:connector-curvature="0"
         sodipodi:nodetypes="ccc" />
      <path
         style="stroke-width:1px;stroke-linecap:butt;stroke-linejoin:miter;stroke-opacity:1"
         d="m 396.80665,619 c 9.01847,-7.08756 9.09017,-20.44011 -0.55665,-31.5"
         inkscape:connector-curvature="0"
         sodipodi:nodetypes="cc" />
      <path
         style="stroke-width:1px;stroke-linecap:butt;stroke-linejoin:miter;stroke-opacity:1"
         d="m 321,587.75 75.63282,-0.1267"
         inkscape:connector-curvature="0"
         sodipodi:nodetypes="cc" />
    </g>
    <g
       id="outline"
       class="outline"
       inkscape:label="#g4440">
      <path
         sodipodi:nodetypes="cccc"
         inkscape:connector-curvature="0"
         d="m 432,107 56.00472,0 -0.005,312 -27.49972,0" />
      <path
         sodipodi:nodetypes="ccc"
         inkscape:connector-curvature="0"
         d="m 485,367 -102.5,0 0,-53" />
      <path
         sodipodi:nodetypes="cc"
         inkscape:connector-curvature="0"
         d="m 227,314 0,50" />
      <path
         sodipodi:nodetypes="ccc"
         inkscape:connector-curvature="0"
         d="m 205,421 -27,0 0,46" />
      <path
         sodipodi:nodetypes="cc"
         inkscape:connector-curvature="0"
         d="m 174,627 195,0" />
      <path
         sodipodi:nodetypes="cc"
         inkscape:connector-curvature="0"
         d="m 229,593 0,31" />
      <path
         sodipodi:nodetypes="ccc"
         inkscape:connector-curvature="0"
         d="m 261,419 -6,0 0,100" />
      <path
         sodipodi:nodetypes="ccc"
         inkscape:connector-curvature="0"
         d="m 364,419 -57,0 0,205.3074" />
      <path
         sodipodi:nodetypes="cccc"
         inkscape:connector-curvature="0"
         d="m 403,627 7,0 0,-208 7.5,0" />
      <path
         sodipodi:nodetypes="ccc"
         inkscape:connector-curvature="0"
         d="m 22,571 0,56 103,0" />
      <path
         sodipodi:nodetypes="ccc"
         inkscape:connector-curvature="0"
         d="m 229,550 0,-28.01655 135,0" />
      <path
         inkscape:label="#path4292-6"
         sodipodi:nodetypes="cccc"
         inkscape:connector-curvature="0"
         id="balcony-outer"
         d="m 22.001196,218.75 0,-197.763337 465.998214,0 0,83.013337" />
      <path
         sodipodi:nodetypes="ccccc"
         inkscape:connector-curvature="0"
         d="m 178.00001,255.75 c 4.6e-4,85.66667 0.001,25.58333 0.002,111.25 L 333.5,367 333.5,107.02476 279,107" />
      <path
         sodipodi:nodetypes="cccccccc"
         inkscape:connector-curvature="0"
         d="m 209,470 -187,0 0,-153.5 m 3,-209.5 49,0 0,-63 208,0 0,60" />
      <path
         sodipodi:nodetypes="cc"
         inkscape:connector-curvature="0"
         d="m 178,419 0,-6" />
      <path
         d="M 178,174.5 178,110"
         inkscape:connector-curvature="0"
         sodipodi:nodetypes="cc" />
    </g>
  </g>
  <g id="shuunou1"
     class="tobira"
     style="stroke-dasharray:none;stroke-opacity:1">
    <rect
       transform="scale(1,-1)"
       style="stroke-width:2;stroke-miterlimit:0;"
       width="98.5"
       height="4"
       x="231"
       y="-318.995"/>
    <path
       style="stroke-width:1.2;stroke-linecap:butt;stroke-linejoin:miter;stroke-miterlimit:4;"
       d="m 327.5,314.99743 -5,-18 -5,18"
       inkscape:connector-curvature="0"
       sodipodi:nodetypes="ccc"/>
    <path
       style="stroke-width:1.2;stroke-linecap:butt;stroke-linejoin:miter;stroke-miterlimit:4;"
       d="m 243.5,315 -5,-18 -5,18"
       inkscape:connector-curvature="0"
       sodipodi:nodetypes="ccc"/>
  </g>
  <g
     transform="translate(78,-224.24676)"
     id="shuunou2"
     class="tobira"
     style="stroke-dasharray:none;stroke-opacity:1">
    <rect
       y="-543.24176"
       x="308.5"
       height="4"
       width="97.5"
       style="stroke-width:2;stroke-miterlimit:0;"
       transform="scale(1,-1)" />
    <path
       d="m 405,539.2442 -5,-18 -5,18"
       style="stroke-width:1.2;stroke-linecap:butt;stroke-linejoin:miter;stroke-miterlimit:4;" />
    <path
       d="m 321,539.24675 -5,-18 -5,18"
       style="stroke-width:1.2;stroke-linecap:butt;stroke-linejoin:miter;stroke-miterlimit:4;" />
  </g>
  <g
     id="tobira_genkan"
     class="tobira"
     style="stroke-dasharray:none;stroke-opacity:1">
    <rect
       transform="matrix(0,1,-1,0,0,0)"
       y="-471.5"
       x="371"
       height="4"
       width="44"
       id="tobira-a-2-0"
       style="stroke-width:2;stroke-miterlimit:0;" />
    <path
       style="stroke-width:0.8;stroke-linecap:butt;stroke-linejoin:miter;stroke-miterlimit:4;"
       d="m 467.01795,391.70036 C 455.58416,390.8134 449.4571,385.28082 447.33554,371.5 l 19.16446,0" />
    <path
       style="stroke-width:0.8;stroke-linecap:butt;stroke-linejoin:miter;stroke-miterlimit:4;"
       d="m 467.01794,392.79965 C 455.58415,393.6866 449.45709,399.21918 447.33553,413 L 466.5,413" />
  </g>
  <!-- door -->
  <use
     id="door1"
     xlink:href="#door"
     transform="translate(0,0.00250244)"
     width="100%"
     height="100%" />
  <use
     id="door2"
     xlink:href="#door"
     transform="matrix(-1,0,0,-1,824.5,837.995)"
     width="100%"
     height="100%" />
  <use
     id="door3"
     xlink:href="#door"
     transform="matrix(-1,0,0,1,743.5,-51.997498)"
     width="100%"
     height="100%" />
  <use
     id="door4"
     xlink:href="#door"
     transform="translate(-103,0)"
     width="100%"
     height="100%" />
  <use
     id="door5"
     xlink:href="#door"
     transform="matrix(1,0,0,-1,-155,888.995)"
     width="100%"
     height="100%" />
  <use
     id="door6"
     xlink:href="#door"
     transform="matrix(0,1,-1,0,596.9975,6)"
     width="100%"
     height="100%" />
  <use
     id="door7"
     xlink:href="#door"
     transform="translate(-183,-102)"
     width="100%"
     height="100%" />
  <rect
     id="door8"
     class="door"
     transform="matrix(0,1,1,0,0,0)"
     style="stroke-width:2;stroke-miterlimit:0;stroke-dasharray:none;stroke-opacity:1"
     width="79.25"
     height="4"
     x="175.5"
     y="176"
     rx="0"
     ry="0" />
  <!-- tobira -->
  <use
     id="tobira1"
     xlink:href="#tobira"
     transform="translate(365,520)"
     width="100%"
     height="100%" />
  <use
     id="tobira2"
     xlink:href="#tobira"
     transform="matrix(0,1,-1,0,231,551)"
     width="100%"
     height="100%" />
  <use
     id="tobira3"
     xlink:href="#tobira"
     transform="matrix(0,1,1,0,200,425)"
     width="100%"
     height="100%" />
  <!-- aircon -->
  <use
     id="living_aircon"
     x="30"
     y="117"
     xlink:href="#aircon_svg"
     transform="translate(-0.5,-2.5)"
     style="pointer-events:all;" />
  <use
     id="bedroom3_aircon"
     x="370"
     y="117"
     xlink:href="#aircon_svg"
     transform="translate(0.5,-2.5)"
     style="pointer-events:all;" />
  <use
     id="bedroom2_aircon"
     x="30"
     y="580"
     xlink:href="#aircon_svg"
     style="pointer-events:all;" />
  <g
     id="tv"
     class="interactive"
     transform="translate(30,160)"
     style="pointer-events:all;" >
    <rect
       rx="5"
       ry="5"
       width="50"
       height="35"
       style="fill:none"
       x="0"
       y="0" />
    <rect
       rx="5"
       ry="5"
       width="50"
       height="35"
       style="fill:none;stroke-width:3"
       id="rect3450"
       x="0"
       y="0" />
    <rect
       x="10"
       y="8"
       rx="2"
       ry="2"
       width="30"
       height="20"
       style="fill:none;stroke-width:3"
       id="rect3452" />
  </g>
  <text
     id="living_light1"
     text-anchor="middle"
     font-size="24"
     y="235"
     x="125"
     stroke-width="0"
     fill="#e7d149"
     class="zmdi zmdi-lamp zmdi-hc-5x"></text>
  <text
     id="living_light2"
     text-anchor="middle"
     font-size="24"
     y="410"
     x="100"
     fill="#e7d149"
     class="zmdi zmdi-lamp zmdi-hc-5x"></text>
  <text
     id="bedroom2_light1"
     y="570"
     x="125"
     fill="#e7d149"
     class="zmdi zmdi-lamp zmdi-hc-5x"></text>
  <text
     id="bedroom3_light1"
     text-anchor="middle"
     y="235"
     x="430"
     fill="#e7d149"
     class="zmdi zmdi-lamp zmdi-hc-5x"></text>
  <text
     id="temp1"
     class="temp_text"
     y="295"
     x="30">Temp:</text>
  <text
     id="temp2"
     class="temp_text"
     y="497"
     x="30">Temp:</text>
  <text
     id="temp3"
     class="temp_text"
     y="275"
     x="340">Temp:</text>
  <path
     class="window"
     d="m 22,218.75 0,97.75"
     id="window1-3"
     inkscape:connector-curvature="0"
     sodipodi:nodetypes="cc"
     inkscape:label="#path4241" />
</svg>
