<?xml version="1.0"?>
<svg id="layout_svg" width="500" height="639" viewBox="0 0 500 639" xmlns="http://www.w3.org/2000/svg">
    <defs>
         <g id="aircon_svg">
             <rect rx="5" ry="5" width="110" height="40" style="fill:none;stroke:black;stroke-width:3;" />
             <line stroke="#000000" stroke-width="2" x1="20" y1="25" x2="90" y2="25"/>
             <line stroke="#000000" stroke-width="2" x1="20" y1="29" x2="90" y2="29"/>
             <line stroke="#000000" stroke-width="2" x1="20" y1="33" x2="90" y2="33"/>
             <line stroke="#000000" stroke-width="2" x1="20" y1="33" x2="15" y2="40"/>
             <line stroke="#000000" stroke-width="2" x1="90" y1="33" x2="95" y2="40"/>
         </g>
    </defs>

    <g>
     <title>Layer 1</title>
     <g stroke="null" id="svgg">
         <path fill-rule="evenodd"
               fill="#000000"
               d="m19.712,22.975931c0,2.076182 0.457858,2.458474 2.946,2.458474c2.488143,0 2.946,-0.382293 2.946,-2.458474c0,-2.076182 -0.457858,-2.458474 -2.946,-2.458474c-2.488143,0 -2.946,0.382293 -2.946,2.458474m465.959004,0c0,2.025783 0.475043,2.458474 2.7005,2.458474c2.225458,0 2.7005,-0.432691 2.7005,-2.458474c0,-2.025783 -0.475043,-2.458474 -2.7005,-2.458474c-2.225458,0 -2.7005,0.432691 -2.7005,2.458474m-414.895004,22.617964c0,1.966779 0.491,2.458474 2.455,2.458474l2.455,0l0,28.991559l0,28.991559l-28.2325,-0.099568l-28.2325,-0.098339l0.05401,3.066947c0.030688,1.687743 0.141163,40.395192 0.2455,86.018331l0.19149,82.948925l2.7005,-0.098339l2.7005,-0.099568l0.251638,-82.834606l0.25041,-82.834606l26.26359,-0.261828c25.675618,-0.255681 26.25377,-0.30608 25.854833,-2.228607c-0.224633,-1.081729 -0.578153,-16.459486 -0.786828,-34.172794l-0.37807,-32.206014l-2.8969,0c-2.434133,0 -2.895673,0.392127 -2.895673,2.458474m208.184002,-0.111861c0,1.856148 0.616205,2.437577 2.946,2.780535c2.68086,0.393356 2.946,0.181927 2.946,-2.347843c0,-2.43266 -0.367023,-2.779305 -2.946,-2.779305c-2.45009,0 -2.946,0.394585 -2.946,2.346614m4.91,59.472954c0,0.810067 -1.112115,1.135815 -3.1915,0.93422c-2.958275,-0.286412 -3.213595,-0.074983 -3.499603,2.887478l-0.306875,3.196017l26.586423,0l26.586423,0l-0.046645,126.365583l-0.046645,126.365583l-48.644598,0l-48.644598,0l0.317923,-26.061058l0.316695,-26.059828l-3.6825,0l-3.6825,0.001229l0,26.078267l0,26.078267l-22.3405,-0.264286l-22.3405,-0.264286l0.32406,-42.777454c0.177988,-23.5276 0.025778,-46.870814 -0.337563,-51.873809l-0.660395,-9.096355l-2.855165,0l-2.853938,0l0,55.561521l0,55.561521l2.863758,0c1.57611,0 3.087163,0.553157 3.359668,1.229237c0.295828,0.733855 0.526598,0.535947 0.573243,-0.491695c0.072423,-1.623822 4.432503,-1.720932 77.164333,-1.720932l77.087001,0l0,-2.4007c0,-1.320201 0.331425,-2.604754 0.7365,-2.854289c0.405075,-0.250764 0.40262,-14.326759 -0.006138,-31.281628c-0.40753,-16.953639 -0.62848,-75.188751 -0.491,-129.410403l0.251638,-98.584822l-25.0901,0c-18.205053,0 -25.412933,-0.323289 -26.2685,-1.180068c-0.916943,-0.91824 -1.1784,-0.903489 -1.1784,0.062691m175.041502,0.887509l-26.7595,0.261828l0,2.918209l0,2.918209l26.7595,0.261828l26.7595,0.261828l0,125.873888l0,125.873888l-48.8545,0.254452l-48.8545,0.255681l0,-26.069662l0,-26.068433l-2.946,0l-2.946,0l0,25.568133c0,23.689859 -0.126433,25.569363 -1.7185,25.582884c-1.356388,0.012292 -1.43372,0.195449 -0.36825,0.871529c0.742638,0.470798 1.35025,2.013491 1.35025,3.427113l0,2.570335l29.58275,0.245847c16.270513,0.135216 39.74645,0.245847 52.16875,0.245847l22.586,0l0.263913,22.358595l0.263913,22.358595l-116.554809,0.018439c-64.104961,0.011063 -116.653009,0.127841 -116.773304,0.259369c-0.121523,0.132758 -0.503275,23.473513 -0.84943,51.868892l-0.62848,51.627962l-12.484903,0.491695l-12.484903,0.491695l-0.268823,15.812907l-0.268823,15.814136l2.987735,-0.440067l2.987735,-0.438838l-0.263913,22.978131l-0.263913,22.978131l-2.7005,-0.185615l-2.7005,-0.184386l0,13.2143l0,13.215529l-26.343378,0l-26.344605,0l0.43208,2.950169l0.433308,2.950169l97.485596,0l97.485596,0l0.430853,-2.935418l0.430853,-2.936648l-29.53365,-0.259369l-29.53365,-0.260598l-0.25532,-48.415965l-0.254093,-48.417194l27.259093,-0.260598l27.26032,-0.261828l0.30933,-2.688342l0.30933,-2.689571l-27.31433,-0.260598l-27.31433,-0.261828l0,-48.677793l0,-48.677793l26.7595,-0.261828l26.7595,-0.261828l0,-2.442494l0,-2.442494l21.583133,0l21.583133,0l-0.224633,103.010076l-0.224633,103.010076l-2.629305,0.304851c-5.45992,0.631828 -1.697633,6.087183 4.19805,6.087183l4.814255,0l0,-103.348116c0,-102.52084 0.015958,-103.351804 1.964,-103.861938c1.270463,-0.333123 1.964,-1.341098 1.964,-2.857976l0,-2.344155l22.697703,0l22.697703,0l-0.398938,2.704322l-0.39771,2.704322l14.496775,-0.295017l14.496775,-0.295017l0.273733,-28.714981c0.150983,-15.793239 0.05401,-86.907069 -0.21604,-158.030733l-0.491,-129.315752l-2.455,0c-1.35025,0 -14.496775,0.118007 -29.2145,0.261828m-284.043503,29.239865l0,29.009998l2.900583,0l2.90181,0l0.28969,-26.797371c0.34861,-32.072027 0.43699,-31.222625 -3.26024,-31.222625l-2.831843,0l0,29.009998m-154.715329,239.822946c-0.212358,0.608472 -0.509413,23.103513 -0.659168,49.988159l-0.272505,48.879387l2.946,0.2901c1.6203,0.158572 43.932225,0.173322 94.026501,0.033189l91.080501,-0.255681l0.001228,-3.186183l0,-3.186183l-13.0115,0l-13.012728,0l0,-22.617964l0,-22.617964l12.5205,0l12.5205,0l0,-3.196017l0,-3.196017l-12.735313,0c-9.69234,0 -12.664118,-0.293788 -12.435803,-1.229237c0.164485,-0.67608 0.114158,-0.897343 -0.11293,-0.491695c-0.22586,0.405648 -1.692723,0.737542 -3.26024,0.737542l-2.8478,0l-0.261458,26.305676l-0.261458,26.305676l-23.3225,0.263057c-21.723068,0.245847 -23.32741,0.14505 -23.399833,-1.475085c-0.046645,-1.028872 -0.27987,-1.236613 -0.573243,-0.508904c-0.386663,0.961263 -11.512723,1.229237 -50.986668,1.229237l-50.490758,0l0,-46.104999l0,-46.10377l-2.532333,-0.485549c-1.411625,-0.270432 -2.704183,0.004917 -2.918995,0.623223m284.322145,92.943853c0.035598,40.306687 -0.214813,51.106765 -1.195585,51.410387c-0.683718,0.211429 -10.96403,0.352791 -22.84623,0.314685l-21.604,-0.068837l0,-48.637228l0,-48.635999l4.1735,-0.302392c3.688638,-0.266744 4.1735,-0.581429 4.1735,-2.704322l0,-2.401929l18.626085,0l18.626085,0l0.046645,51.025636m23.585185,25.598864c0,2.013491 1.248368,3.96429 2.171448,3.392695c0.606385,-0.373688 0.47136,-0.939137 -0.34861,-1.468938c-1.10475,-0.712958 -1.0802,-1.026413 0.141163,-1.829105c1.260643,-0.828506 1.226273,-0.969868 -0.2455,-0.98339c-0.945175,-0.007375 -1.7185,0.392127 -1.7185,0.888738m-23.568,81.209555l0,48.677793l-35.843,0l-35.843,0l0,-48.677793l0,-48.677793l35.843,0l35.843,0l0,48.677793m-284.780003,25.019894l0,29.575447l53.2735,-0.254452l53.2735,-0.254452l0.045418,-2.704322l0.045418,-2.704322l-50.35696,0l-50.35696,0l-0.261458,-26.305676l-0.261458,-26.305676l-2.7005,-0.310997l-2.7005,-0.310997l0,29.575447"
               id="path0"/>
         <path fill-rule="evenodd"
               fill="#8c8c8c"
               d="m21.676,19.411143l-3.437,0.614619l0,304.850822l0,304.850822l198.118502,0.248306l198.118502,0.248306l0.045418,-52.859657c0.109248,-127.206381 0.398938,-153.968104 1.673083,-154.39342c0.956223,-0.320831 1.2275,4.276516 1.2275,20.844175c0,24.161886 -0.49591,22.91421 8.458703,21.257199c17.62199,-3.262395 31.422773,-16.470549 35.55822,-34.031432l1.842478,-7.825324l14.3863,-0.271661l14.3863,-0.272891l-0.033143,-26.278633c-0.018413,-14.4546 0.092063,-104.901872 0.2455,-200.995031c0.153438,-96.093159 -0.089608,-175.08394 -0.5401,-175.53507c-0.93781,-0.940366 -464.822339,-1.384121 -470.050262,-0.45113m3.928,3.564788c0,2.076182 -0.457858,2.458474 -2.946,2.458474c-2.488143,0 -2.946,-0.382293 -2.946,-2.458474c0,-2.076182 0.457858,-2.458474 2.946,-2.458474c2.488143,0 2.946,0.382293 2.946,2.458474m465.468004,0c0,2.058972 -0.463995,2.458474 -2.853938,2.458474c-2.161628,0 -2.791335,-0.417941 -2.596163,-1.720932c0.14239,-0.946513 0.06874,-1.167775 -0.163258,-0.491695c-0.695993,2.025783 -458.872647,1.782394 -458.872647,-0.243389c0,-1.304221 26.413345,-1.502128 229.542502,-1.723391c126.248376,-0.137675 230.757727,-0.360166 232.243002,-0.494153c2.290515,-0.206512 2.7005,0.12907 2.7005,2.215085m-466.684457,42.545128c0.254093,38.087914 0.231998,38.584526 -1.7185,38.584526c-1.945588,0 -1.975048,-0.5802 -1.975048,-38.91642c0,-36.532929 0.105565,-38.895523 1.7185,-38.584526c1.596978,0.307309 1.736913,3.068176 1.975048,38.91642m460.792457,-0.259369l0,38.843895l-99.659498,0l-99.659498,0l-0.259003,-31.222625l-0.259003,-31.222625l-107.529001,0l-107.529001,0l-0.259003,31.222625l-0.259003,31.222625l-21.590498,0l-21.590498,0l0,-38.843895l0,-38.843895l229.297002,0l229.297002,0l0,38.843895m4.91,0c0,33.87286 -0.189035,38.843895 -1.473,38.843895c-1.283965,0 -1.473,-4.971035 -1.473,-38.843895c0,-33.87286 0.189035,-38.843895 1.473,-38.843895c1.283965,0 1.473,4.971035 1.473,38.843895m-413.143361,10.079745c0.208675,17.713308 0.562195,33.091065 0.786828,34.172794c0.398938,1.922527 -0.179215,1.972926 -25.854833,2.228607l-26.26359,0.261828l-0.25041,82.834606l-0.251638,82.834606l-2.7005,0.099568l-2.7005,0.098339l-0.19149,-82.948925c-0.104338,-45.623138 -0.214813,-84.330588 -0.2455,-86.018331l-0.05401,-3.066947l28.2325,0.098339c17.871173,0.062691 28.2325,-0.254452 28.2325,-0.865383c0,-0.53103 -1.10475,-0.964951 -2.455,-0.964951l-2.455,0l0,-26.937504c0,-27.786907 0.305648,-29.882756 4.01638,-27.585312c0.491,0.303622 0.89362,0.083588 0.89362,-0.489236c0,-0.572825 -1.10475,-1.041164 -2.455,-1.041164c-1.964,0 -2.455,-0.491695 -2.455,-2.458474c0,-2.066348 0.46154,-2.458474 2.895673,-2.458474l2.8969,0l0.37807,32.206014m207.081707,-2.172062c-0.247955,22.47906 -0.031915,30.395348 0.856795,31.468472c0.97218,1.172692 5.250018,1.457875 23.409653,1.564819c12.22099,0.071296 34.151505,0.438838 48.734205,0.817443l26.514,0.688373l-23.771765,-0.08113l-23.770538,-0.0799l0.050328,103.255924c0.028233,56.790758 0.340018,114.693976 0.694765,128.67409c0.35352,13.980115 0.311785,25.62222 -0.09329,25.871755c-0.405075,0.249535 -0.7365,1.534088 -0.7365,2.854289l0,2.4007l-77.087001,0c-72.731831,0 -77.091911,0.09711 -77.164333,1.720932c-0.046645,1.027642 -0.277415,1.225549 -0.573243,0.491695c-0.272505,-0.67608 -1.783558,-1.229237 -3.359668,-1.229237l-2.863758,0l0,-55.561521l0,-55.561521l2.853938,0l2.855165,0l0.660395,9.096355c0.36334,5.002995 0.51555,28.34621 0.337563,51.873809l-0.32406,42.777454l22.3405,0.264286l22.3405,0.264286l0,-26.078267l0,-26.078267l3.789293,0c3.759833,0 3.786838,0.027043 3.580618,3.687712l-0.208675,3.687712l47.974383,-0.264286l47.974383,-0.264286l0,22.163146l0,22.163146l-48.118,-0.264286c-26.4649,-0.14505 -48.118,0.067608 -48.118,0.473256c0,0.405648 21.858093,0.737542 48.572175,0.737542l48.573403,0l0.046645,-126.365583l0.046645,-126.365583l-26.52382,0c-17.029108,0 -26.525048,-0.351562 -26.525048,-0.98339c0,-0.621994 -8.580225,-1.066978 -23.3225,-1.210799l-23.3225,-0.227409l23.212025,-0.281495c22.171105,-0.269203 23.235348,-0.368771 23.72021,-2.224919c0.416123,-1.591862 1.059333,-1.834022 3.547475,-1.334952c1.956635,0.392127 3.03929,0.213887 3.03929,-0.497841c0,-0.608472 -0.8838,-1.106313 -1.964,-1.106313c-1.916128,0 -1.964,-0.655183 -1.964,-27.075178l0,-27.075178l2.2095,-0.888738c2.123575,-0.855549 2.105163,-0.892426 -0.491,-0.95143c-2.2095,-0.051628 -2.7005,-0.510133 -2.7005,-2.521165c0,-2.025783 0.475043,-2.458474 2.7005,-2.458474l2.7005,-0.001229l-0.332653,30.035181m-6.050348,-27.575478c0,1.301762 -11.784,1.475085 -100.164001,1.475085c-88.380001,0 -100.164001,-0.173322 -100.164001,-1.475085c0,-1.301762 11.784,-1.475085 100.164001,-1.475085c88.380001,0 100.164001,0.173322 100.164001,1.475085m0,30.976777l0,27.534913l-100.164001,0l-100.164001,0l0,-26.87973c0,-14.782806 0.2946,-27.173517 0.654258,-27.534913c0.360885,-0.360166 45.434685,-0.655183 100.164001,-0.655183l99.509743,0l0,27.534913m213.119779,158.817444c0.03928,162.201534 -0.008593,185.679965 -0.37807,186.049965c-0.163258,0.163489 -16.449728,0.408107 -36.19161,0.545781l-35.894555,0.248306l0.18658,-2.704322c0.10311,-1.487377 -0.169395,-2.704322 -0.605158,-2.704322c-0.435763,0 -0.792965,1.054686 -0.792965,2.344155c0,1.516879 -0.693538,2.524853 -1.964,2.857976c-1.948043,0.510133 -1.964,1.341098 -1.964,103.861938l0,103.348116l-4.891588,0c-4.253288,0 -4.962783,-0.288871 -5.443963,-2.212627c-0.546238,-2.185584 -0.74632,-2.211398 -16.466913,-2.117976l-15.914538,0.094651l17.185,-0.594951c9.45175,-0.328206 17.736148,-0.948971 18.410045,-1.381663c0.968498,-0.619536 1.19313,-22.39916 1.067925,-103.737785c-0.085925,-56.624811 -0.336335,-101.736587 -0.553603,-100.24921l-0.396483,2.704322l-20.556943,0l-20.556943,0l-0.1473,-2.704322l-0.1473,-2.704322l-0.40753,2.688342l-0.40753,2.688342l-26.69567,0.261828l-26.69567,0.261828l0,48.677793l0,48.677793l27.31433,0.261828l27.31433,0.260598l-0.30933,2.689571l-0.30933,2.688342l-27.26032,0.261828l-27.259093,0.260598l0.254093,48.417194l0.25532,48.415965l29.53365,0.260598l29.53365,0.259369l-0.430853,2.936648l-0.430853,2.935418l-97.485596,0l-97.485596,0l-0.433308,-2.950169l-0.43208,-2.950169l26.344605,0l26.343378,0l0,-13.215529l0,-13.2143l2.7005,0.184386l2.7005,0.185615l0.263913,-22.978131l0.263913,-22.978131l-2.987735,0.438838l-2.987735,0.440067l0.268823,-15.814136l0.268823,-15.812907l12.48613,-0.491695l12.487358,-0.491695l0.349838,-51.627962c0.192718,-28.395379 0.200083,-40.232933 0.017185,-26.305676l-0.332653,25.322286l-20.850315,-0.089734l-20.851543,-0.088505l9.189065,-3.107512c11.478353,-3.880702 11.423115,-4.237181 -1.27169,-8.249411l-10.372375,-3.278376l-0.139935,-18.406598c-0.076105,-10.123997 -0.40753,-16.858988 -0.7365,-14.965963l-0.596565,3.441864l-12.275,0l-12.275,0l0,22.617964l0,22.617964l13.012728,0l13.0115,0l0,3.186183l-0.001228,3.186183l-91.080501,0.255681c-50.094275,0.140133 -92.406201,0.125382 -94.026501,-0.033189l-2.946,-0.2901l0.272505,-48.879387c0.301965,-54.268363 0.090835,-51.278858 3.578163,-50.611383l2.532333,0.485549l0,46.10377l0,46.104999l50.573,0c27.81515,0 50.573,-0.331894 50.573,-0.737542c0,-0.405648 -22.426425,-0.737542 -49.8365,-0.737542l-49.8365,0l-0.271278,-14.979484l-0.271278,-14.979484l50.353278,-0.263057l50.353278,-0.263057l-0.305648,13.275762c-0.16694,7.301669 -0.035598,14.721345 0.293373,16.488988l0.59902,3.214455l23.274628,-0.264286l23.274628,-0.263057l0.261458,-26.37943l0.261458,-26.37943l3.175543,0.173322c1.746733,0.095881 12.344968,0.12907 23.552043,0.073754l20.3765,-0.099568l0,-3.75532c0,-16.310748 -14.183763,-33.270534 -31.804525,-38.028911c-4.347805,-1.173922 10.210345,-1.364453 108.646026,-1.419769l113.666501,-0.06515l0,22.126269c0,17.044603 0.282325,22.126269 1.2275,22.127499c0.953768,0 1.164898,-4.93047 0.946403,-22.126269l-0.281098,-22.127499l12.676393,0l12.676393,0l0.660395,4.179406c0.881345,5.563528 4.73324,10.929148 10.56632,14.713969l4.776203,3.098907l-2.75451,1.159171c-6.164505,2.596149 -12.926803,12.200179 -12.975903,18.428724l-0.022095,2.736282l12.766,-0.125382l12.766,-0.125382l0,-22.032847l0,-22.032847l9.801588,0l9.801588,0l0.292145,21.880422l0.290918,21.880422l-0.027005,-22.126269l-0.028233,-22.126269l-22.586,0c-12.4223,0 -35.898238,-0.110631 -52.16875,-0.245847l-29.58275,-0.245847l0,-2.570335c0,-1.413623 -0.607613,-2.956315 -1.35025,-3.427113c-1.06547,-0.67608 -0.988138,-0.859237 0.36825,-0.871529c1.592068,-0.013522 1.7185,-1.893025 1.7185,-25.582884l0,-25.568133l2.946,0l2.946,0l0,26.068433l0,26.069662l48.8545,-0.255681l48.8545,-0.254452l0,-125.873888l0,-125.873888l-26.7595,-0.261828l-26.7595,-0.261828l0,-2.918209l0,-2.918209l26.7595,-0.261828c14.717725,-0.143821 27.973498,-0.261828 29.457545,-0.261828l2.698045,0l0.030688,129.807447m-310.206438,-127.103125c0.197628,1.216945 0.228315,14.271444 0.06874,29.009998l-0.28969,26.797371l-2.90181,0l-2.900583,0l0,-29.009998l0,-29.009998l2.831843,0c2.17513,0 2.914085,0.512592 3.1915,2.212627m-67.096378,-0.495383c-6.315488,0.170864 -16.921088,0.172093 -23.568,0.001229c-6.646913,-0.170864 -1.480365,-0.309768 11.482035,-0.310997c12.9624,-0.001229 18.401453,0.138904 12.085965,0.309768m102.071536,0c-6.346175,0.172093 -16.730825,0.172093 -23.077,0c-6.346175,-0.170864 -1.15385,-0.310997 11.5385,-0.310997c12.69235,0 17.884675,0.140133 11.5385,0.310997m-53.028,1.966779c-6.346175,0.172093 -16.730825,0.172093 -23.077,0c-6.346175,-0.170864 -1.15385,-0.310997 11.5385,-0.310997c12.69235,0 17.884675,0.140133 11.5385,0.310997m257.83024,0c-6.045438,0.172093 -16.209138,0.172093 -22.586,0.001229c-6.376863,-0.172093 -1.430038,-0.312226 10.992263,-0.313455c12.4223,-0.001229 17.639175,0.140133 11.593738,0.312226m-246.78274,180.209859l0,177.010155l-22.562678,0l-22.56145,0l-0.27005,-16.471778l-0.268823,-16.471778l-50.8185,-0.254452l-50.8185,-0.254452l0,-160.283924l0,-160.283924l73.650001,0l73.650001,0l0,177.010155m54.992001,-127.840667l0,49.169487l-23.568,0l-23.568,0l0,-49.169487l0,-49.169487l23.568,0l23.568,0l0,49.169487m100.164001,-26.051224l0,23.119493l-48.8545,-0.255681l-48.8545,-0.254452l-0.105565,-22.126269c-0.05892,-12.169448 0.077333,-22.458163 0.303193,-22.863812c0.224633,-0.405648 22.25703,-0.737542 48.960065,-0.737542l48.551308,0l0,23.118264m156.138001,76.146327c0,54.59534 -0.331425,99.468644 -0.7365,99.719408c-0.405075,0.250764 -0.807695,-0.497841 -0.89362,-1.663158c-0.20622,-2.767013 -7.92474,-19.327296 -9.008623,-19.327296c-0.777008,0 -6.656733,11.814199 -8.93129,17.946863l-1.002868,2.704322l-27.400255,0c-20.737385,0 -27.640845,-0.298705 -28.390848,-1.229237c-0.54501,-0.67608 -2.408355,-4.658809 -4.140358,-8.850508c-1.732003,-4.191699 -3.54993,-7.621271 -4.039703,-7.621271c-1.29624,0 -1.174718,0.45113 1.93454,7.170141c5.162865,11.156557 5.383815,10.530875 -3.740193,10.530875c-4.357625,0 -7.922285,-0.204053 -7.922285,-0.453589c0,-1.033788 7.260663,-15.88912 8.441518,-17.269553c0.826108,-0.968639 0.964815,-2.007344 0.390345,-2.937877c-0.796648,-1.290699 -6.192738,8.753398 -9.877693,18.385701c-0.610068,1.59555 -1.784785,2.229836 -4.552798,2.458474l-3.730373,0.308539l-0.491,22.126269c-0.33879,15.242541 -0.764733,21.208029 -1.368663,19.1761c-4.884223,-16.414004 -21.09827,-30.482624 -36.563543,-31.726612l-6.257795,-0.502758l0,-104.105327l0,-104.104097l74.141001,0l74.141001,0l0,99.264591m-204.492909,-0.188073l-0.254093,50.89042l-23.99026,0.264286c-18.537705,0.202824 -24.169475,-0.019668 -24.779543,-0.98339c-0.84943,-1.342327 -0.982,-97.532595 -0.136253,-99.736618c0.406303,-1.062061 5.362948,-1.325118 24.961213,-1.325118l24.453028,0l-0.254093,50.89042m48.118,0l-0.254093,50.89042l-22.586,0l-22.586,0l-0.254093,-50.89042l-0.254093,-50.89042l23.094185,0l23.094185,0l-0.254093,50.89042m-149.027094,-24.338896c0,14.42264 -0.355975,22.617964 -0.982,22.617964c-0.626025,0 -0.982,-8.195324 -0.982,-22.617964c0,-14.42264 0.355975,-22.617964 0.982,-22.617964c0.626025,0 0.982,8.195324 0.982,22.617964m49.1,74.737621c0,40.975392 -0.224633,49.169487 -1.34534,49.169487c-0.85434,0 -1.750415,-2.063889 -2.456228,-5.654491c-3.610078,-18.372179 -18.424775,-33.159902 -35.81354,-35.749905l-7.520893,-1.119835l0,-27.907372l0,-27.907372l23.568,0l23.568,0l0,49.169487m-51.064,-25.568133c0,14.42264 -0.355975,22.617964 -0.982,22.617964c-0.626025,0 -0.982,-8.195324 -0.982,-22.617964c0,-14.42264 0.355975,-22.617964 0.982,-22.617964c0.626025,0 0.982,8.195324 0.982,22.617964m151.228001,51.136267l0,23.601354l-48.494843,0c-47.372908,0 -48.50589,-0.044253 -48.998118,-1.931132c-0.698448,-2.673591 -0.773325,-34.878376 -0.094518,-40.600475l0.553603,-4.671101l48.516938,0l48.516938,0l0,23.601354m-128.963606,-12.702937c13.01641,6.221169 20.678465,17.102377 23.313908,33.108274l0.526598,3.196017l-20.59745,0l-20.59745,0l0,-20.294706l0,-20.294706l5.564258,0.653954c3.060158,0.361396 8.36664,1.995052 11.790138,3.631167m-178.402397,26.528168c0,12.47184 -0.331425,22.471685 -0.7365,22.22215c-0.778235,-0.480632 -0.499593,-44.897888 0.281098,-44.897888c0.25041,0 0.455403,10.203898 0.455403,22.675738m456.542852,-0.582658c5.040115,11.129513 5.321213,10.358782 -3.774563,10.358782c-4.357625,0 -7.922285,-0.249535 -7.922285,-0.553157c0,-0.304851 1.275373,-3.291897 2.835525,-6.637881c1.558925,-3.347213 3.092073,-6.859144 3.406313,-7.805656c1.027418,-3.098907 2.531105,-1.82173 5.45501,4.637912m-253.26885,14.292341c0,1.907776 -0.654258,1.966779 -21.604,1.966779c-20.949743,0 -21.604,-0.059003 -21.604,-1.966779c0,-1.907776 0.654258,-1.966779 21.604,-1.966779c20.949743,0 21.604,0.059003 21.604,1.966779m54.501001,-0.98339c-0.375615,0.609702 -9.195203,0.98339 -23.192385,0.98339c-14.807333,0 -22.377325,-0.339269 -21.979615,-0.98339c0.375615,-0.609702 9.195203,-0.98339 23.192385,-0.98339c14.807333,0 22.377325,0.339269 21.979615,0.98339m205.729002,0.98339c0,1.939736 -0.654258,1.966779 -48.118,1.966779c-47.463743,0 -48.118,-0.027043 -48.118,-1.966779c0,-1.939736 0.654258,-1.966779 48.118,-1.966779c47.463743,0 48.118,0.027043 48.118,1.966779m-156.138001,0.98339c0,0.62814 -8.36664,0.98339 -23.134693,0.98339c-15.173128,0 -22.926018,-0.33804 -22.528308,-0.98339c0.375615,-0.609702 9.175563,-0.98339 23.134693,-0.98339c14.364205,0 22.528308,0.356479 22.528308,0.98339m-104.092001,25.076439l0,22.126269l-21.604,0l-21.604,0l0,-22.126269l0,-22.126269l21.604,0l21.604,0l0,22.126269m259.739002,0l0,21.634574l-47.8725,0.255681l-47.8725,0.254452l0,-21.479691c0,-11.814199 0.298283,-21.779624 0.664078,-22.144708c0.364568,-0.366313 21.907193,-0.550698 47.8725,-0.410565l47.208423,0.255681l0,21.634574m-129.632594,-14.865165c12.853153,5.937216 24.067593,22.340157 24.067593,35.205353c0,0.441296 -9.05895,0.802692 -20.131,0.802692l-20.131,0l0,-19.803011l0,-19.803011l5.637908,0.663788c3.100665,0.363854 7.85109,1.685284 10.5565,2.934189m-330.434411,23.715673c0,13.612573 -0.374388,22.241818 -0.982,22.617964c-0.644438,0.398273 -0.982,-7.384028 -0.982,-22.617964c0,-15.233936 0.337563,-23.016237 0.982,-22.617964c0.607613,0.376147 0.982,9.005392 0.982,22.617964m355.484003,17.209321c0,1.907776 -0.654258,1.966779 -21.604,1.966779c-20.949743,0 -21.604,-0.059003 -21.604,-1.966779c0,-1.907776 0.654258,-1.966779 21.604,-1.966779c20.949743,0 21.604,0.059003 21.604,1.966779m-200.553862,25.309994c-0.24059,18.516 -0.423488,20.422547 -1.98364,20.72248c-1.593295,0.307309 -1.7185,-1.184985 -1.7185,-20.391816c0,-20.137364 0.056465,-20.72371 1.98364,-20.72371c1.935768,0 1.977503,0.49907 1.7185,20.393045m282.059863,-10.559147c0,5.408644 -0.36334,9.833897 -0.806468,9.833897c-2.835525,0 -10.523358,-3.629937 -13.052008,-6.162166c-3.146083,-3.150535 -4.092485,-5.0116 -5.24388,-10.309612l-0.693538,-3.196017l9.897333,0l9.89856,0l0,9.833897m-264.555712,-4.977181c12.6187,5.589341 19.34049,15.006528 23.38633,32.757942l0.616205,2.704322l-19.57617,0c-10.76763,0 -19.76275,0.331894 -19.98861,0.737542c-0.227088,0.405648 -0.263913,0.148738 -0.082243,-0.571595c0.18167,-0.720333 0.330198,-9.744163 0.330198,-20.051317l0,-18.742179l5.32735,0.550698c2.930043,0.302392 7.42392,1.480002 9.98694,2.614587m201.953212,-2.217544c-4.137903,0.83834 -2.237733,2.243358 2.2095,1.633656l4.419,-0.606014l0,19.800553c0,12.808651 0.35352,19.801782 1.00164,19.801782c0.65794,0 0.910805,-7.012798 0.7365,-20.405337l-0.26514,-20.405337l-2.946,-0.133987c-1.6203,-0.073754 -3.940275,0.067608 -5.1555,0.314685m-8.488163,2.83585c-7.754118,2.845684 -16.76765,11.601541 -21.29958,20.69052c-3.174315,6.363761 -5.33226,17.104835 -3.435773,17.102377c0.58429,-0.001229 1.180855,-1.881962 1.324473,-4.179406c0.781918,-12.500113 10.258218,-25.480858 22.570043,-30.916544c8.156738,-3.600436 8.782763,-5.611468 0.840838,-2.696946m-95.995411,4.421566c-12.704625,3.009173 -23.677248,15.048322 -26.241495,28.791193c-0.640755,3.435718 -0.552375,4.581367 0.354748,4.581367c0.720543,0 1.447223,-2.009803 1.798288,-4.975952c1.572428,-13.304034 16.357665,-27.47591 28.663353,-27.47591l2.44518,0l0,16.225931c0,10.162104 0.367023,16.225931 0.982,16.225931c0.617433,0 0.982,-6.392033 0.982,-17.209321l0,-17.209321l-2.7005,0.098339c-1.485275,0.055316 -4.313435,0.480632 -6.283573,0.947742m167.268972,21.07773l-0.30933,10.328051l-9.75617,0c-5.36663,0 -9.757398,-0.247077 -9.757398,-0.54824c0,-6.782931 7.5614,-16.552908 13.775005,-17.796896c1.627665,-0.326977 3.197638,-0.978473 3.488555,-1.449271c2.024148,-3.279605 2.849028,-0.228638 2.559338,9.466356m-194.618899,15.68015c0,2.122893 -0.484863,2.437577 -4.1735,2.704322l-4.1735,0.302392l0,48.635999l0,48.637228l21.604,0.068837c11.8822,0.038106 22.162513,-0.103256 22.84623,-0.314685c1.422673,-0.441296 1.788468,-102.436022 0.365795,-102.436022c-0.429625,0 -0.74632,0.995682 -0.704585,2.212627l0.07856,2.212627l-17.185,0l-17.185,0l0.07856,-2.212627c0.041735,-1.216945 -0.28969,-2.212627 -0.7365,-2.212627c-0.448038,0 -0.81506,1.080499 -0.81506,2.401929m-67.758001,25.624678l0,22.126269l-8.838,0l-8.838,0l0,-22.126269l0,-22.126269l8.838,0l8.838,0l0,22.126269m5.892,0.597409c0,18.481581 -0.208675,21.52886 -1.473,21.52886c-1.265553,0 -1.473,-3.111199 -1.473,-22.095538c0,-19.236333 0.190263,-22.021784 1.473,-21.52886c1.24714,0.479403 1.473,3.864722 1.473,22.095538m97.964321,25.216572l0.254093,47.448555l-4.427593,0l-4.42882,0l0,-15.799386c0,-10.024429 -0.413668,-16.583639 -1.131755,-17.946863c-4.711145,-8.945159 -17.024198,-9.982635 -23.146968,-1.94957c-2.684543,3.521765 -2.731188,3.825386 -3.056475,19.637064l-0.330198,16.058755l-3.843303,0l-3.843303,0l0,-47.712841l0,-47.714071l21.8495,0.265515l21.8495,0.264286l0.25532,47.448555m103.345681,-0.266744l0,47.672277l-40.0165,0.267974c-49.808268,0.331894 -55.237501,0.16103 -55.237501,-1.741829c0,-0.787941 0.4419,-1.433291 0.982,-1.433291c0.5401,0 0.982,-0.885051 0.982,-1.966779c0,-1.081729 -0.4419,-1.966779 -0.982,-1.966779c-1.509825,0 -1.283965,-29.016144 0.2455,-31.609834c0.982,-1.665616 0.982,-2.170833 0,-2.527312c-0.821198,-0.297475 -1.2275,-2.698176 -1.2275,-7.247582l0,-6.801369l8.1015,-0.004917c17.207095,-0.012292 26.128565,-7.1222 24.93789,-19.877995c-1.081428,-11.600311 -8.323678,-16.486529 -24.44689,-16.497592c-8.274578,-0.004917 -10.352735,-0.864154 -7.938243,-3.283293c0.360885,-0.360166 21.793035,-0.655183 47.627,-0.655183l46.972743,0l0,47.673506m53.817283,-44.604101c1.848615,15.962874 -19.614223,37.249574 -37.557818,37.249574l-3.493465,0l0,-18.604505c0,-24.434777 -2.566703,-21.805438 20.98043,-21.488295l19.77257,0.265515l0.298283,2.57771m-126.458279,4.903427c10.84128,4.669872 12.002495,21.028561 1.936995,27.276773l-2.455,1.524254l2.588798,-2.898541c7.626458,-8.54074 7.141595,-18.073474 -1.236093,-24.293415c-6.887503,-5.112397 -18.537705,1.515649 -18.537705,10.545626c0,2.849372 1.745505,1.504586 2.369075,-1.824188c1.54665,-8.251869 11.45012,-11.500743 17.274608,-5.666783c3.400175,3.404987 4.582258,8.821006 3.045428,13.956759c-3.232008,10.803766 -18.234513,10.487852 -20.2783,-0.426545c-0.655485,-3.494721 -2.41081,-4.982098 -2.41081,-2.041763c0,6.433827 5.998793,12.253036 12.65307,12.275163c3.288473,0.011063 4.128083,0.276578 3.05893,0.968639c-0.81015,0.524884 -5.781525,0.960034 -11.0475,0.968639l-9.5745,0.014751l0,-16.225931l0,-16.225931l8.90183,0c6.875228,0 9.995533,0.472027 13.711175,2.072494m-257.86461,8.061337c-0.27005,0.706811 -0.367023,6.791535 -0.214813,13.521609l0.277415,12.238285l21.604,0l21.604,0l0.276188,-12.706625c0.20622,-9.505691 -0.040508,-12.909449 -0.982,-13.506858c-2.264738,-1.439437 -42.001368,-1.01535 -42.56479,0.453589m41.797603,12.484133l0,11.800677l-20.131,0l-20.131,0l0,-11.800677l0,-11.800677l20.131,0l20.131,0l0,11.800677m212.357502,-8.199012c-0.675125,0.272891 -1.2275,1.075583 -1.2275,1.783623c0,1.727078 2.452545,2.582627 3.7316,1.301762c0.563423,-0.56422 0.791738,-1.636115 0.50573,-2.381032c-0.543783,-1.41854 -0.985683,-1.523025 -3.00983,-0.704353m-111.702501,14.661112c3.610078,1.361995 5.321213,2.436348 4.419,2.776847c-2.780288,1.048539 -14.239,4.502696 -14.9755,4.516217c-0.405075,0.006146 -0.7365,-2.430202 -0.7365,-5.41479c0,-6.245754 -0.20131,-6.212565 11.293,-1.878274m32.897,13.205695c0,1.907776 -0.654258,1.966779 -21.604,1.966779c-20.949743,0 -21.604,-0.059003 -21.604,-1.966779c0,-1.907776 0.654258,-1.966779 21.604,-1.966779c20.949743,0 21.604,0.059003 21.604,1.966779m-230.037185,38.106353c-0.170623,6.355156 -0.310558,1.155483 -0.310558,-11.55483c0,-12.710313 0.139935,-17.909986 0.310558,-11.55483c0.17185,6.355156 0.17185,16.754503 0,23.109659m186.740804,-28.026608c4.16859,19.74032 25.226353,38.713596 39.52059,35.607314c1.43372,-0.310997 2.895673,-0.098339 3.249193,0.474486c0.438218,0.70927 -2.991418,1.041164 -10.77254,1.041164c-16.809385,0 -15.214863,-3.435718 -15.214863,32.783756l0,30.748139l-4.6645,1.573424c-2.565475,0.865383 -6.754933,2.114288 -9.310588,2.775618c-7.90019,2.042992 -7.651008,3.290668 1.268008,6.324425c4.357625,1.483689 9.50576,2.742428 11.437845,2.796515c1.933313,0.055316 3.00983,0.269203 2.392398,0.474486c-0.768415,0.256911 -1.123163,4.545719 -1.123163,13.569549l0,13.193403l-99.182001,0l-99.182001,0l0,-73.099048c0,-40.203431 0.2946,-73.392835 0.654258,-73.754231c0.360885,-0.360166 40.923623,-0.655183 90.141463,-0.655183l89.487206,0l1.298695,6.146186m42.089748,14.259151l0.26514,19.913642l-2.742235,0c-16.663313,0 -34.250933,-15.465033 -37.479258,-32.955849c-1.42881,-7.738048 -2.272103,-7.434427 19.874453,-7.136951l19.815533,0.265515l0.266368,19.913642m67.000633,-17.455168c0,0.540864 0.8838,0.98339 1.964,0.98339c1.0802,0 1.964,-0.442525 1.964,-0.98339c0,-0.540864 -0.8838,-0.98339 -1.964,-0.98339c-1.0802,0 -1.964,0.442525 -1.964,0.98339m7.365,0c0.33388,0.540864 1.243458,0.98339 2.021693,0.98339c0.778235,0 1.415308,-0.442525 1.415308,-0.98339c0,-0.540864 -0.909578,-0.98339 -2.021693,-0.98339c-1.112115,0 -1.749188,0.442525 -1.415308,0.98339m7.365,0c0,0.540864 0.66285,0.98339 1.473,0.98339c0.81015,0 1.473,-0.442525 1.473,-0.98339c0,-0.540864 -0.66285,-0.98339 -1.473,-0.98339c-0.81015,0 -1.473,0.442525 -1.473,0.98339m6.874,0c0,0.540864 0.8838,0.98339 1.964,0.98339c1.0802,0 1.964,-0.442525 1.964,-0.98339c0,-0.540864 -0.8838,-0.98339 -1.964,-0.98339c-1.0802,0 -1.964,0.442525 -1.964,0.98339m7.091268,0.162259c0.999185,2.999339 4.692733,4.127778 4.692733,1.433291c0,-2.117976 -0.454175,-2.57894 -2.537243,-2.57894c-1.49264,0 -2.380123,0.470798 -2.15549,1.145649m-57.777198,2.875186c4.323255,3.404987 5.51393,6.880041 5.51393,16.089486l0,8.407982l-12.275,0l-12.275,0l0,-6.940273c0,-16.72746 9.254123,-25.263283 19.03607,-17.557195m60.505931,4.829673c0,1.081729 0.4419,1.966779 0.982,1.966779c0.5401,0 0.982,-0.885051 0.982,-1.966779c0,-1.081729 -0.4419,-1.966779 -0.982,-1.966779c-0.5401,0 -0.982,0.885051 -0.982,1.966779m-20.622,4.425254c0,1.680367 0.543783,2.463391 1.7185,2.473225c1.441085,0.013522 1.485275,0.163489 0.273733,0.930533c-2.23405,1.414852 -0.907123,1.862294 3.408768,1.146878c4.361308,-0.721562 6.09331,-6.072432 2.2095,-6.822266c-0.945175,-0.181927 -1.7185,0.169635 -1.7185,0.783024c0,0.61216 0.43699,0.842027 0.970953,0.512592c0.556058,-0.345416 0.720543,0.050399 0.385435,0.924386c-0.897303,2.342926 -5.284388,1.977843 -5.284388,-0.440067c0,-1.081729 -0.4419,-1.966779 -0.982,-1.966779c-0.5401,0 -0.982,1.106313 -0.982,2.458474m-4.91,1.475085c0,1.081729 0.4419,1.966779 0.982,1.966779c0.5401,0 0.982,0.53103 0.982,1.180068c0,0.91824 -0.261458,0.91824 -1.1784,0c-1.430038,-1.432061 -3.7316,-1.553756 -3.7316,-0.196678c0,0.540864 0.649348,0.98339 1.442313,0.98339c0.843293,0 1.220135,0.5802 0.905895,1.400101c-0.30442,0.794087 0.317923,1.857377 1.43863,2.458474c2.912858,1.561131 3.367033,1.323888 2.683315,-1.400101c-0.354748,-1.41731 -0.19149,-2.458474 0.385435,-2.458474c1.29133,0 1.307288,4.610869 0.018413,5.408644c-1.33552,0.826047 -1.249595,4.425254 0.105565,4.425254c0.62357,0 0.811378,-0.719104 0.438218,-1.69143c-0.355975,-0.929303 -0.33388,-1.375516 0.050328,-0.991994c0.384208,0.384751 1.29133,0.206512 2.015555,-0.395814c0.74141,-0.615848 1.318335,-0.680997 1.318335,-0.148738c0,1.124752 4.932095,3.532828 5.688235,2.776847c3.414905,-3.419738 -1.70868,-11.117221 -5.727515,-8.603431c-1.501233,0.939137 -1.9149,0.802692 -2.424313,-0.80638c-0.33879,-1.066978 -1.027418,-1.939736 -1.530693,-1.939736c-0.503275,0 -0.915715,-0.885051 -0.915715,-1.966779c0,-1.092792 -0.654258,-1.966779 -1.473,-1.966779c-0.818743,0 -1.473,0.873988 -1.473,1.966779m25.532,0.98339c0,1.081729 0.4419,1.966779 0.982,1.966779c0.5401,0 0.982,-0.885051 0.982,-1.966779c0,-1.081729 -0.4419,-1.966779 -0.982,-1.966779c-0.5401,0 -0.982,0.885051 -0.982,1.966779m0,6.883728c0,1.081729 0.4419,1.966779 0.982,1.966779c0.5401,0 0.982,-0.885051 0.982,-1.966779c0,-1.081729 -0.4419,-1.966779 -0.982,-1.966779c-0.5401,0 -0.982,0.885051 -0.982,1.966779m-14.198493,0.06515c0.355975,0.576512 0.472588,1.223091 0.26023,1.435749c-0.673898,0.67608 -4.719738,-0.70927 -4.719738,-1.615218c0,-1.230466 3.680045,-1.081729 4.459508,0.179469m-12.806508,1.90163c-1.061788,1.719703 0.513095,3.172661 2.051153,1.894255c0.762278,-0.633057 1.385848,-1.540234 1.385848,-2.01472c0,-1.184985 -2.689453,-1.091563 -3.437,0.120465m27.005,4.425254c0,0.811297 0.4419,1.475085 0.982,1.475085c0.5401,0 0.982,-0.663788 0.982,-1.475085c0,-0.811297 -0.4419,-1.475085 -0.982,-1.475085c-0.5401,0 -0.982,0.663788 -0.982,1.475085m-32.406,1.966779c-0.693538,0.837111 -1.04092,1.744288 -0.77087,2.01472c0.27005,0.270432 1.059333,-0.194219 1.75287,-1.03133c0.693538,-0.837111 1.04092,-1.744288 0.77087,-2.01472c-0.27005,-0.270432 -1.059333,0.194219 -1.75287,1.03133m26.023,0.491695c0.97709,1.081729 1.945588,1.966779 2.15058,1.966779c0.204993,0 -0.099428,-0.885051 -0.67758,-1.966779c-0.578153,-1.081729 -1.545423,-1.966779 -2.15058,-1.966779c-0.605158,0 -0.29951,0.885051 0.67758,1.966779m-48.609,4.787879c0,4.280204 -1.819155,5.023892 -12.275,5.023892c-10.455845,0 -12.275,-0.743688 -12.275,-5.023892l0,-3.804489l12.275,0l12.275,0l0,3.804489m52.30623,0.251994c-0.099428,1.336181 0.52046,1.843856 2.256145,1.843856c1.685358,0 2.393625,-0.545781 2.393625,-1.843856c0,-1.267344 -0.704585,-1.843856 -2.254918,-1.843856c-1.501233,0 -2.301563,0.617077 -2.394853,1.843856m-28.73823,0.860466c0,0.540864 0.8838,0.98339 1.964,0.98339c1.0802,0 1.964,-0.442525 1.964,-0.98339c0,-0.540864 -0.8838,-0.98339 -1.964,-0.98339c-1.0802,0 -1.964,0.442525 -1.964,0.98339m6.874,0c0,0.540864 0.8838,0.98339 1.964,0.98339c1.0802,0 1.964,-0.442525 1.964,-0.98339c0,-0.540864 -0.8838,-0.98339 -1.964,-0.98339c-1.0802,0 -1.964,0.442525 -1.964,0.98339m7.856,0c0,0.540864 0.66285,0.98339 1.473,0.98339c0.81015,0 1.473,-0.442525 1.473,-0.98339c0,-0.540864 -0.66285,-0.98339 -1.473,-0.98339c-0.81015,0 -1.473,0.442525 -1.473,0.98339m6.874,0c0,0.540864 0.8838,0.98339 1.964,0.98339c1.0802,0 1.964,-0.442525 1.964,-0.98339c0,-0.540864 -0.8838,-0.98339 -1.964,-0.98339c-1.0802,0 -1.964,0.442525 -1.964,0.98339m67.758001,8.850508c0,1.902859 -0.654258,1.966779 -20.131,1.966779c-19.476743,0 -20.131,-0.06392 -20.131,-1.966779c0,-1.902859 0.654258,-1.966779 20.131,-1.966779c19.476743,0 20.131,0.06392 20.131,1.966779m-381.998004,24.150823c0,14.056327 -0.355975,22.068495 -0.982,22.068495c-0.626025,0 -0.982,-8.213763 -0.982,-22.675738c0,-14.867624 0.33879,-22.466768 0.982,-22.068495c0.607613,0.376147 0.982,9.025059 0.982,22.675738m243.300322,-20.463111l35.606093,0.270432l-0.254093,47.436263l-0.25532,47.436263l-35.352,0.510133l-35.352,0.510133l36.0885,0.227409l36.0885,0.227409l0,-48.677793l0,-48.677793l-36.0885,0.233555l-36.0885,0.232326l35.60732,0.271661m127.852719,8.655059c1.295013,4.62562 2.907948,9.161505 3.5843,10.079745c1.437403,1.954487 1.215225,2.361365 4.72342,-8.664893l2.34207,-7.365589l0.0982,23.741487l0.096973,23.740258l-11.144473,0.35525c-6.27498,0.199136 -11.745948,0.839569 -12.5205,1.465251c-2.18495,1.765185 -45.37822,1.580799 -48.804173,-0.20897c-1.77742,-0.929303 -5.977925,-1.389038 -12.719355,-1.392726l-10.0655,-0.006146l0,-25.076439l0,-25.076439l41.026733,0l41.026733,0l2.355573,8.409212m9.189065,-6.68828c-0.337563,0.946513 -0.92799,2.163457 -1.313425,2.704322c-0.385435,0.540864 -1.283965,3.417279 -1.995915,6.392033l-1.293785,5.408644l-1.609253,-4.916949c-0.885028,-2.704322 -1.907535,-5.691368 -2.272103,-6.637881c-1.805653,-4.695686 -1.825293,-4.671101 3.757378,-4.671101c4.663273,0 5.262293,0.217575 4.727103,1.720932m-174.122104,45.973471c0,18.256631 -0.239363,22.126269 -1.367435,22.126269c-2.295425,0 -2.560565,-2.379803 -2.560565,-23.026071c0,-19.902579 0.163258,-21.226468 2.618258,-21.226468c1.053195,0 1.309743,4.342895 1.309743,22.126269m-205.467544,22.372117l0.261458,26.305676l44.998923,0c48.509573,0 77.719163,0.797775 77.719163,2.121663c0,1.361995 -20.051213,1.006745 -21.435833,-0.379834c-0.953768,-0.955117 -1.14894,-0.698207 -0.9329,1.229237l0.273733,2.437577l-53.2735,0.254452l-53.2735,0.254452l0,-29.575447l0,-29.575447l2.7005,0.310997l2.7005,0.310997l0.261458,26.305676m312.505545,-16.165698c2.43045,0.59618 11.9313,1.082958 21.113,1.082958c9.1817,0 18.68255,-0.486778 21.113,-1.082958c2.43045,-0.594951 9.390375,-1.266114 15.4665,-1.491065l11.0475,-0.409336l0,21.694807l0,21.693578l-11.0475,-0.12907c-9.40756,-0.109402 -10.245943,-0.238472 -5.6465,-0.867841c12.449305,-1.704952 13.749228,-3.220601 13.744318,-16.036628c-0.003683,-10.985693 -1.31097,-14.641444 -6.434555,-18.003408c-5.839218,-3.831532 -70.594753,-3.864722 -76.425378,-0.039336c-5.63177,3.695087 -8.55322,14.836893 -6.494703,24.766671c1.307288,6.307216 4.275383,8.26662 14.079425,9.301638c6.627273,0.698207 6.341265,0.748605 -4.999608,0.873988l-12.0295,0.133987l0,-21.693578l0,-21.694807l11.0475,0.409336c6.076125,0.22495 13.03605,0.896114 15.4665,1.491065m-112.930001,8.052733c0,2.704322 -0.259003,4.916949 -0.575698,4.916949c-1.916128,0 -15.05406,-4.346583 -14.586383,-4.825985c0.718088,-0.733855 12.283593,-4.828444 13.93458,-4.9317c0.828563,-0.051628 1.2275,1.521796 1.2275,4.840736m168.413002,-0.731396c6.68742,2.082328 -15.467728,2.248275 -26.143295,0.196678c-7.8069,-1.500899 -9.061405,-1.504586 -16.063065,-0.055316c-9.27499,1.921298 -31.64004,2.205252 -28.49764,0.361396c4.665728,-2.736282 62.213383,-3.145618 70.704001,-0.502758m-11.1457,2.189271c9.532765,0.008605 17.153085,0.310997 16.933363,0.671164c-0.219723,0.358937 0.155893,0.83834 0.8347,1.06329c0.89362,0.297475 1.233638,3.499638 1.233638,11.639647l0,11.227852l-17.676,0.826047c-21.556128,1.007974 -26.613428,1.005516 -49.061948,-0.019668l-17.637948,-0.80638l-0.764733,-3.441864c-1.02128,-4.597347 0.057693,-15.68015 1.795833,-18.438558c1.336748,-2.122893 1.976275,-2.216315 15.85439,-2.309737c7.9542,-0.054086 16.892855,-0.416711 19.863405,-0.80638c2.97055,-0.389668 6.7267,-0.464652 8.347,-0.165947c1.6203,0.298705 10.745535,0.550698 20.2783,0.560532m12.1277,28.21714c-2.1604,0.431462 -18.0688,0.784253 -35.352,0.784253c-17.2832,0 -33.1916,-0.352791 -35.352,-0.784253c-2.218093,-0.443755 13.169848,-0.784253 35.352,-0.784253c22.182153,0 37.570093,0.340499 35.352,0.784253m-221.441002,8.677185c0,0.593722 -4.091258,0.98339 -10.311,0.98339c-6.219743,0 -10.311,-0.389668 -10.311,-0.98339c0,-0.593722 4.091258,-0.98339 10.311,-0.98339c6.219743,0 10.311,0.389668 10.311,0.98339m221.195502,0.731396c-4.455825,0.181927 -11.747175,0.181927 -16.203,0c-4.455825,-0.181927 -0.81015,-0.330665 8.1015,-0.330665c8.91165,0 12.557325,0.148738 8.1015,0.330665"
               id="path1"/>
         <path fill-rule="evenodd"
               fill="#ffffff"
               d="m4,320.943025l0,314.193025l245.500002,0l245.500002,0l0,-314.193025l0,-314.193025l-245.500002,0l-245.500002,0l0,314.193025m487.726262,-301.080752c0.450493,0.45113 0.693538,79.441912 0.5401,175.53507c-0.153438,96.093159 -0.263913,186.540431 -0.2455,200.995031l0.033143,26.278633l-14.3863,0.272891l-14.3863,0.271661l-1.842478,7.825324c-4.135448,17.560882 -17.93623,30.769036 -35.55822,34.031432c-8.954613,1.657012 -8.458703,2.904687 -8.458703,-21.257199c0,-16.567659 -0.271278,-21.165006 -1.2275,-20.844175c-1.274145,0.425316 -1.563835,27.187039 -1.673083,154.39342l-0.045418,52.859657l-198.118502,-0.248306l-198.118502,-0.248306l0,-304.850822l0,-304.850822l3.437,-0.614619c5.227923,-0.932991 469.112452,-0.489236 470.050262,0.45113m-465.140262,3.113658c0,1.306679 26.132248,1.475085 229.297002,1.475085c203.164754,0 229.297002,-0.168405 229.297002,-1.475085c0,-1.306679 -26.132248,-1.475085 -229.297002,-1.475085c-203.164754,0 -229.297002,0.168405 -229.297002,1.475085m-5.892,42.213234c0,38.33622 0.02946,38.91642 1.975048,38.91642c2.884625,0 2.629305,-76.944102 -0.256548,-77.500946c-1.612935,-0.310997 -1.7185,2.051597 -1.7185,38.584526m5.892,0.072525l0,38.843895l21.590498,0l21.590498,0l0.259003,-31.222625l0.259003,-31.222625l107.529001,0l107.529001,0l0.259003,31.222625l0.259003,31.222625l99.659498,0l99.659498,0l0,-38.843895l0,-38.843895l-229.297002,0l-229.297002,0l0,38.843895m460.558004,0c0,33.87286 0.189035,38.843895 1.473,38.843895c1.283965,0 1.473,-4.971035 1.473,-38.843895c0,-33.87286 -0.189035,-38.843895 -1.473,-38.843895c-1.283965,0 -1.473,4.971035 -1.473,38.843895m-409.494004,-19.667795c0,1.301762 11.784,1.475085 100.164001,1.475085c88.380001,0 100.164001,-0.173322 100.164001,-1.475085c0,-1.301762 -11.784,-1.475085 -100.164001,-1.475085c-88.380001,0 -100.164001,0.173322 -100.164001,1.475085m-5.6465,4.097048c-0.940265,0.377376 -1.2275,6.802599 -1.2275,27.453783l0,26.960859l2.470958,0l2.46973,0l-0.26023,-27.207936c-0.256548,-26.730992 -0.468905,-28.401525 -3.452958,-27.206707m6.300758,0c-0.359658,0.361396 -0.654258,12.752107 -0.654258,27.534913l0,26.87973l100.164001,0l100.164001,0l0,-27.534913l0,-27.534913l-99.509743,0c-54.729316,0 -99.803116,0.295017 -100.164001,0.655183m202.292002,0c-1.936995,1.940966 -0.675125,54.414643 1.309743,54.414643c1.917355,0 1.964,-0.655183 1.964,-27.534913c0,-27.483285 -0.28969,-29.866776 -3.273743,-26.87973m-190.369294,58.099896c6.646913,0.170864 17.252513,0.169635 23.568,-0.001229c6.315488,-0.170864 0.876435,-0.310997 -12.085965,-0.309768c-12.9624,0.001229 -18.128948,0.140133 -11.482035,0.310997m102.562536,-0.001229c6.346175,0.172093 16.730825,0.172093 23.077,0c6.346175,-0.170864 1.15385,-0.310997 -11.5385,-0.310997c-12.69235,0 -17.884675,0.140133 -11.5385,0.310997m155.703466,0.001229c6.646913,0.170864 17.252513,0.169635 23.568,-0.001229c6.315488,-0.170864 0.876435,-0.310997 -12.085965,-0.309768c-12.9624,0.001229 -18.128948,0.140133 -11.482035,0.310997m-208.731467,1.96555c6.346175,0.172093 16.730825,0.172093 23.077,0c6.346175,-0.170864 1.15385,-0.310997 -11.5385,-0.310997c-12.69235,0 -17.884675,0.140133 -11.5385,0.310997m102.675466,0.001229c6.646913,0.170864 17.252513,0.169635 23.568,-0.001229c6.315488,-0.170864 0.876435,-0.310997 -12.085965,-0.309768c-12.9624,0.001229 -18.128948,0.140133 -11.482035,0.310997m155.645774,0c6.376863,0.170864 16.540563,0.170864 22.586,-0.001229c6.045438,-0.172093 0.828563,-0.313455 -11.593738,-0.312226c-12.4223,0.001229 -17.369125,0.141362 -10.992263,0.313455m-371.496741,163.4824l0,160.283924l50.8185,0.254452l50.8185,0.254452l0.268823,16.471778l0.27005,16.471778l22.56145,0l22.562678,0l0,-177.010155l0,-177.010155l-73.650001,0l-73.650001,0l0,160.283924m155.156001,-111.114437l0,49.169487l23.568,0l23.568,0l0,-49.169487l0,-49.169487l-23.568,0l-23.568,0l0,49.169487m49.788628,-48.431945c-0.22586,0.405648 -0.362113,10.694364 -0.303193,22.863812l0.105565,22.126269l48.8545,0.254452l48.8545,0.255681l0,-23.119493l0,-23.118264l-48.551308,0c-26.703035,0 -48.735433,0.331894 -48.960065,0.737542m105.367373,103.366555l0,104.105327l6.257795,0.502758c15.465273,1.243988 31.67932,15.312608 36.563543,31.726612c0.60393,2.031929 1.029873,-3.933559 1.368663,-19.1761l0.491,-22.126269l3.724235,-0.491695c3.65795,-0.48309 3.804023,-0.667476 8.132188,-10.307154c5.747155,-12.797588 5.432915,-12.691874 9.605188,-3.25502c1.98364,4.484257 4.169818,9.259844 4.857218,10.612005l1.25205,2.458474l27.72186,0.260598l27.723088,0.261828l1.009005,-2.720302c2.32243,-6.260505 8.166558,-17.961614 8.97057,-17.961614c0.477498,0 2.223003,2.987046 3.880128,6.637881c7.38955,16.287393 6.578173,26.662155 6.655505,-85.063213l0.069968,-99.568212l-74.141001,0l-74.141001,0l0,104.104097m-105.371056,-54.592882c-0.845748,2.204022 -0.713178,98.394291 0.136253,99.736618c0.610068,0.963722 6.241838,1.186214 24.779543,0.98339l23.99026,-0.264286l0.254093,-50.89042l0.254093,-50.89042l-24.453028,0c-19.598265,0 -24.55491,0.263057 -24.961213,1.325118m51.597963,49.565302l0.254093,50.89042l22.586,0l22.586,0l0.254093,-50.89042l0.254093,-50.89042l-23.094185,0l-23.094185,0l0.254093,50.89042m-105.310908,-24.338896c0,14.42264 0.355975,22.617964 0.982,22.617964c0.626025,0 0.982,-8.195324 0.982,-22.617964c0,-14.42264 -0.355975,-22.617964 -0.982,-22.617964c-0.626025,0 -0.982,8.195324 -0.982,22.617964m3.928,53.475505l0,27.907372l7.520893,1.119835c17.388765,2.590003 32.203463,17.377726 35.81354,35.749905c0.705813,3.590602 1.601888,5.654491 2.456228,5.654491c1.120708,0 1.34534,-8.194095 1.34534,-49.169487l0,-49.169487l-23.568,0l-23.568,0l0,27.907372m-5.892,-4.306018c0,14.42264 0.355975,22.617964 0.982,22.617964c0.626025,0 0.982,-8.195324 0.982,-22.617964c0,-14.42264 -0.355975,-22.617964 -0.982,-22.617964c-0.626025,0 -0.982,8.195324 -0.982,22.617964m55.604523,32.206014c-0.678808,5.722099 -0.60393,37.926884 0.094518,40.600475c0.492228,1.886879 1.62521,1.931132 48.998118,1.931132l48.494843,0l0,-23.601354l0,-23.601354l-48.516938,0l-48.516938,0l-0.553603,4.671101m-48.730523,22.236901l0,20.294706l20.59745,0l20.59745,0l-0.526598,-3.196017c-1.23732,-7.519244 -2.46482,-11.476158 -4.925958,-15.885432c-6.008613,-10.766889 -18.640815,-19.495702 -30.178088,-20.854009l-5.564258,-0.653954l0,20.294706m-162.239904,10.063765c-0.154665,12.222305 0.050328,22.426203 0.455403,22.676968c0.405075,0.249535 0.7365,-9.750309 0.7365,-22.22215c0,-12.47184 -0.204993,-22.675738 -0.455403,-22.675738c-0.25041,0 -0.581835,9.999845 -0.7365,22.220921m374.486931,0.719104c-2.23405,4.754689 -4.063025,8.839445 -4.063025,9.077917c0,0.238472 3.56466,0.433921 7.922285,0.433921c9.175563,0 8.95584,0.731396 3.385445,-11.290544l-3.18168,-6.866519l-4.063025,8.645225m77.792813,-5.484856c-0.31424,0.946513 -1.847388,4.458443 -3.406313,7.805656c-1.560153,3.345984 -2.835525,6.33303 -2.835525,6.637881c0,0.303622 3.56466,0.553157 7.922285,0.553157c9.095775,0 8.814678,0.770732 3.774563,-10.358782c-2.923905,-6.459641 -4.427593,-7.736819 -5.45501,-4.637912m-291.02184,18.930253c0,1.907776 0.654258,1.966779 21.604,1.966779c20.949743,0 21.604,-0.059003 21.604,-1.966779c0,-1.907776 -0.654258,-1.966779 -21.604,-1.966779c-20.949743,0 -21.604,0.059003 -21.604,1.966779m52.537,-0.98339c-0.39771,0.64412 7.172283,0.98339 21.979615,0.98339c13.997183,0 22.81677,-0.373688 23.192385,-0.98339c0.39771,-0.64412 -7.172283,-0.98339 -21.979615,-0.98339c-13.997183,0 -22.81677,0.373688 -23.192385,0.98339m154.665001,0.98339c0,1.939736 0.654258,1.966779 48.118,1.966779c47.463743,0 48.118,-0.027043 48.118,-1.966779c0,-1.939736 -0.654258,-1.966779 -48.118,-1.966779c-47.463743,0 -48.118,0.027043 -48.118,1.966779m-105.565001,0.98339c-0.39771,0.64535 7.35518,0.98339 22.528308,0.98339c14.768053,0 23.134693,-0.35525 23.134693,-0.98339c0,-0.626911 -8.164103,-0.98339 -22.528308,-0.98339c-13.95913,0 -22.759078,0.373688 -23.134693,0.98339m-101.637001,25.076439l0,22.126269l21.604,0l21.604,0l0,-22.126269l0,-22.126269l-21.604,0l-21.604,0l0,22.126269m51.503445,-20.871218c-0.263913,0.689602 -0.360885,10.535792 -0.214813,21.880422l0.266368,20.625371l47.8725,0.255681l47.8725,0.254452l0,-22.134874l0,-22.136103l-47.657688,0c-37.735805,0 -47.758343,0.261828 -48.138868,1.255051m156.362634,-0.608472c-0.365795,0.365083 -0.664078,10.330509 -0.664078,22.144708l0,21.479691l47.8725,-0.254452l47.8725,-0.255681l0,-21.634574l0,-21.634574l-47.208423,-0.255681c-25.965308,-0.140133 -47.507933,0.044253 -47.8725,0.410565m-50.746078,22.819559l0,19.803011l20.131,0c11.07205,0 20.131,-0.361396 20.131,-0.802692c0,-17.327327 -17.01315,-36.067048 -34.624093,-38.139542l-5.637908,-0.663788l0,19.803011m-316.204003,7.510639c0,15.233936 0.337563,23.016237 0.982,22.617964c1.33061,-0.823589 1.33061,-44.41234 0,-45.235928c-0.644438,-0.398273 -0.982,7.384028 -0.982,22.617964m314.240003,17.209321c0,1.907776 0.654258,1.966779 21.604,1.966779c20.949743,0 21.604,-0.059003 21.604,-1.966779c0,-1.907776 -0.654258,-1.966779 -21.604,-1.966779c-20.949743,0 -21.604,0.059003 -21.604,1.966779m-146.698526,5.418478c17.620763,4.758377 31.804525,21.718163 31.804525,38.028911l0,3.75532l-20.3765,0.215117c-15.489823,0.163489 -17.256195,0.287642 -7.365,0.519967l13.0115,0.304851l0,18.133707l0,18.132478l10.210345,3.227977c12.689895,4.011001 12.768455,4.468277 1.43372,8.299809l-9.189065,3.107512l20.8675,0.088505l20.8675,0.089734l0,-25.528798l0,-25.527569l8.07695,-0.286412l8.07695,-0.285183l0.72177,-4.251931c2.511465,-14.782806 15.394078,-27.338235 30.01483,-29.253387l5.1555,-0.674851l0,17.349454l0,17.350683l30.6875,-0.260598l30.6875,-0.259369l0.6383,-5.23778c1.788468,-14.675863 14.439083,-28.97435 29.629395,-33.490567c12.725493,-3.783592 11.914115,-5.032497 12.223445,18.814704l0.26514,20.405337l2.43536,0l2.43536,0l0,-22.126269l0,-22.126269l-113.666501,0.06515c-98.435681,0.055316 -112.993831,0.245847 -108.646026,1.419769m224.503615,20.395503l0.263913,21.880422l12.5205,0.275349l12.5205,0.275349l0.022095,-2.733824c0.0491,-6.226086 6.812625,-15.831346 12.975903,-18.426265l2.75451,-1.159171l-4.776203,-3.098907c-5.83308,-3.784821 -9.684975,-9.150442 -10.56632,-14.713969l-0.660395,-4.179406l-12.660435,0l-12.659208,0l0.26514,21.880422m50.836913,0.245847l0,22.126269l9.82,0l9.82,0l0,-22.126269l0,-22.126269l-9.82,0l-9.82,0l0,22.126269m-289.690003,-0.41917c0,19.206831 0.125205,20.699125 1.7185,20.391816c2.87726,-0.553157 3.139945,-41.115525 0.26514,-41.115525c-1.927175,0 -1.98364,0.586346 -1.98364,20.72371m266.659647,-17.527693c1.151395,5.298012 2.097798,7.159077 5.24388,10.309612c2.52865,2.532229 10.216483,6.162166 13.052008,6.162166c0.443128,0 0.806468,-4.425254 0.806468,-9.833897l0,-9.833897l-9.89856,0l-9.897333,0l0.693538,3.196017m-260.767647,17.809188l0,19.313775l19.658413,0l19.658413,0l-0.616205,-2.704322c-4.943143,-21.688661 -16.175995,-33.595052 -33.37327,-35.372529l-5.32735,-0.550698l0,19.313775m213.585002,-15.222873c-16.449728,5.958113 -27.087243,18.436099 -28.1834,33.061563l-0.2946,3.933559l19.3945,0.266744l19.3945,0.266744l0,-19.688692l0,-19.688692l-2.7005,0.035648c-1.485275,0.019668 -4.91,0.835881 -7.6105,1.813125m-105.375966,7.771237c-10.711165,4.620703 -18.267655,14.201377 -19.513568,24.739628l-0.5892,4.975952l15.84948,0l15.848253,0l0,-16.225931l0,-16.225931l-2.7005,0.03196c-1.485275,0.017209 -5.488153,1.234154 -8.894465,2.704322m165.400717,9.525359c-6.69233,2.389637 -11.257403,7.730673 -12.842105,15.027425l-0.693538,3.196017l9.897333,0l9.89856,0l0,-9.833897c0,-10.808683 0.109248,-10.662403 -6.26025,-8.389544m-186.854962,22.691718c-1.161215,3.03007 1.200495,3.44924 17.90186,3.177578c15.875258,-0.25814 16.62035,-0.358937 16.62035,-2.237212c0,-2.728907 -33.487428,-3.641001 -34.52221,-0.940366m96.879211,0.940366l0,2.458474l20.622,0l20.622,0l0,-2.458474l0,-2.458474l-20.622,0l-20.622,0l0,2.458474m53.40116,-1.030101c-1.220135,3.184954 0.676353,3.488575 21.779533,3.488575l21.055308,0l0,-2.458474l0,-2.458474l-21.143688,0c-17.579028,0 -21.23575,0.24093 -21.691153,1.428374m-237.035162,26.598234l0,22.126269l8.838,0l8.838,0l0,-22.126269l0,-22.126269l-8.838,0l-8.838,0l0,22.126269m20.622,0.030731c0,18.984339 0.207448,22.095538 1.473,22.095538c1.264325,0 1.473,-3.047279 1.473,-21.52886c0,-18.230817 -0.22586,-21.616136 -1.473,-22.095538c-1.282738,-0.492924 -1.473,2.292527 -1.473,21.52886m56.956001,25.518964l0,47.712841l3.843303,0l3.843303,0l0.330198,-16.058755c0.325288,-15.811678 0.371933,-16.1153 3.056475,-19.637064c6.12277,-8.033065 18.435823,-6.995589 23.146968,1.94957c0.718088,1.363224 1.131755,7.922434 1.131755,17.946863l0,15.799386l4.42882,0l4.427593,0l-0.254093,-47.448555l-0.25532,-47.448555l-21.8495,-0.264286l-21.8495,-0.265515l0,47.714071m52.700258,-47.020781c-2.414493,2.419139 -0.336335,3.278376 7.938243,3.283293c16.407993,0.011063 24.7955,6.163395 24.7955,18.187793c0,11.677753 -9.035628,18.17673 -25.2865,18.187793l-8.1015,0.004917l0,6.801369c0,4.549407 0.406303,6.950107 1.2275,7.247582c0.982,0.356479 0.982,0.861695 0,2.527312c-1.529465,2.59369 -1.755325,31.609834 -0.2455,31.609834c0.5401,0 0.982,0.885051 0.982,1.966779c0,1.081729 -0.4419,1.966779 -0.982,1.966779c-0.5401,0 -0.982,0.64535 -0.982,1.433291c0,1.902859 5.429233,2.073723 55.237501,1.741829l40.0165,-0.267974l0,-47.672277l0,-47.673506l-46.972743,0c-25.833965,0 -47.266115,0.295017 -47.627,0.655183m107.969674,0.880134c-0.332653,0.866612 -0.60393,9.946987 -0.60393,20.179158l0,18.604505l3.493465,0c17.943595,0 39.406433,-21.2867 37.557818,-37.249574l-0.298283,-2.57771l-19.77257,-0.265515c-17.387538,-0.233555 -19.84622,-0.076213 -20.3765,1.309138m-108.623931,20.590952l0,16.225931l9.5745,-0.014751c5.265975,-0.008605 10.23735,-0.443755 11.0475,-0.968639c1.069153,-0.692061 0.229543,-0.957576 -3.05893,-0.968639c-12.774593,-0.041794 -17.61217,-18.829455 -6.828583,-26.518334c13.827788,-9.860941 25.79714,10.727553 13.94931,23.993481l-2.588798,2.898541l2.455,-1.524254c6.683738,-4.149905 8.74471,-13.058187 4.873175,-21.066667c-2.879715,-5.956883 -8.640373,-8.2826 -20.521345,-8.2826l-8.90183,0l0,16.225931m10.558955,-9.81423c-3.513105,3.518077 -4.670638,8.871405 -3.082253,14.257922c4.314663,14.632839 23.40597,7.71961 20.565535,-7.446719c-1.60066,-8.539511 -11.791365,-12.509947 -17.483283,-6.811203m-295.119235,15.468721l0.271278,14.996694l49.591,0l49.591,0l0.271278,-14.996694l0.271278,-14.996694l-50.133555,0l-50.133555,0l0.271278,14.996694m91.873466,-12.200179c0.941493,0.597409 1.18822,4.001167 0.982,13.506858l-0.276188,12.706625l-21.604,0l-21.604,0l-0.277415,-12.238285c-0.15221,-6.730074 -0.055238,-12.814798 0.214813,-13.521609c0.563423,-1.468938 40.300053,-1.893025 42.56479,-0.453589m-41.029188,12.937721l0,11.800677l20.131,0l20.131,0l0,-11.800677l0,-11.800677l-20.131,0l-20.131,0l0,11.800677m255.629332,-7.494659c0.286008,0.744918 0.057693,1.816813 -0.50573,2.381032c-1.279055,1.280865 -3.7316,0.425316 -3.7316,-1.301762c0,-1.148108 1.295013,-2.137643 3.085935,-2.357677c0.347383,-0.043023 0.865388,0.53226 1.151395,1.278407m-126.005331,15.835033c0,2.984588 0.331425,5.420936 0.7365,5.41479c0.7365,-0.013522 12.195213,-3.467678 14.9755,-4.516217c1.417763,-0.534718 -6.929238,-4.167114 -13.0115,-5.661866c-2.699273,-0.663788 -2.7005,-0.662559 -2.7005,4.763294m0.982,11.327421c0,1.907776 0.654258,1.966779 21.604,1.966779c20.949743,0 21.604,-0.059003 21.604,-1.966779c0,-1.907776 -0.654258,-1.966779 -21.604,-1.966779c-20.949743,0 -21.604,0.059003 -21.604,1.966779m-187.139742,26.551523c0,12.710313 0.139935,17.909986 0.310558,11.55483c0.17185,-6.355156 0.17185,-16.754503 0,-23.109659c-0.170623,-6.355156 -0.310558,-1.155483 -0.310558,11.55483m6.123998,-21.962781c-0.359658,0.361396 -0.654258,33.5508 -0.654258,73.754231l0,73.099048l99.182001,0l99.182001,0l0,-13.257323l0,-13.257323l-2.7005,-0.598639c-16.14408,-3.584456 -20.22429,-6.930439 -11.274588,-9.245093c2.555655,-0.66133 6.745113,-1.910235 9.310588,-2.775618l4.6645,-1.573424l0,-30.748139c0,-36.223161 -1.636258,-32.727211 15.401443,-32.904221c10.641198,-0.109402 11.118695,-0.190532 5.758203,-0.972327c-19.421505,-2.834621 -33.818853,-16.504968 -37.942025,-36.030171l-1.298695,-6.146186l-89.487206,0c-49.21784,0 -89.780578,0.295017 -90.141463,0.655183m182.570987,0.194219c-0.91817,1.487377 1.395668,11.879348 3.611305,16.214868c6.767208,13.251177 21.548763,23.254709 34.357725,23.254709l2.742235,0l-0.26514,-19.913642l-0.266368,-19.913642l-19.815533,-0.265515c-11.08187,-0.148738 -20.056123,0.125382 -20.364225,0.623223m111.374759,2.100766c0,0.540864 -0.8838,0.98339 -1.964,0.98339c-1.0802,0 -1.964,-0.442525 -1.964,-0.98339c0,-0.540864 0.8838,-0.98339 1.964,-0.98339c1.0802,0 1.964,0.442525 1.964,0.98339m6.874,0c0,0.540864 -0.637073,0.98339 -1.415308,0.98339c-0.778235,0 -1.687813,-0.442525 -2.021693,-0.98339c-0.33388,-0.540864 0.303193,-0.98339 1.415308,-0.98339c1.112115,0 2.021693,0.442525 2.021693,0.98339m6.874,0c0,0.540864 -0.66285,0.98339 -1.473,0.98339c-0.81015,0 -1.473,-0.442525 -1.473,-0.98339c0,-0.540864 0.66285,-0.98339 1.473,-0.98339c0.81015,0 1.473,0.442525 1.473,0.98339m7.856,0c0,0.540864 -0.8838,0.98339 -1.964,0.98339c-1.0802,0 -1.964,-0.442525 -1.964,-0.98339c0,-0.540864 0.8838,-0.98339 1.964,-0.98339c1.0802,0 1.964,0.442525 1.964,0.98339m7.856,1.59555c0,2.43389 -0.120295,2.49781 -2.15549,1.14442c-3.16204,-2.101996 -3.327753,-3.723359 -0.381753,-3.723359c2.083068,0 2.537243,0.460964 2.537243,2.57894m-76.241253,1.397643c-3.735283,2.398242 -5.264748,7.508181 -5.264748,17.601447l0,6.940273l12.275,0l12.275,0l0,-8.407982c0,-15.401113 -8.865005,-22.81833 -19.285253,-16.133738m76.241253,4.873925c0,1.081729 -0.4419,1.966779 -0.982,1.966779c-0.5401,0 -0.982,-0.885051 -0.982,-1.966779c0,-1.081729 0.4419,-1.966779 0.982,-1.966779c0.5401,0 0.982,0.885051 0.982,1.966779m-20.622,3.933559c0,1.456646 0.654258,1.966779 2.521285,1.966779c2.1113,0 2.414493,-0.334353 1.869483,-2.057743c-0.52046,-1.638573 -0.283553,-1.985218 1.161215,-1.70741c3.629718,0.700665 2.385033,6.168312 -1.48773,6.539542l-3.300748,0.317143l3.300748,1.649636c3.17677,1.589404 4.923503,7.226685 2.669813,8.62064c-1.06056,0.656413 -5.747155,-1.731995 -5.785208,-2.947711c-0.017185,-0.590034 -0.861705,-0.076213 -1.87562,1.140732c-1.013915,1.216945 -2.103935,2.212627 -2.421858,2.212627c-0.983228,0 -0.6383,-3.781134 0.40262,-4.425254c1.288875,-0.797775 1.272918,-5.408644 -0.018413,-5.408644c-0.576925,0 -0.740183,1.041164 -0.385435,2.458474c0.683718,2.72399 0.229543,2.961232 -2.683315,1.400101c-1.120708,-0.601097 -1.74305,-1.664387 -1.43863,-2.458474c0.31424,-0.819901 -0.062603,-1.400101 -0.905895,-1.400101c-0.792965,0 -1.442313,-0.442525 -1.442313,-0.98339c0,-0.540864 0.66285,-0.98339 1.473,-0.98339c0.818743,0 1.473,-0.873988 1.473,-1.966779c0,-1.092792 0.654258,-1.966779 1.473,-1.966779c0.818743,0 1.473,0.873988 1.473,1.966779c0,1.081729 0.4419,1.966779 0.982,1.966779c0.5401,0 0.982,-1.327576 0.982,-2.950169c0,-1.622593 0.4419,-2.950169 0.982,-2.950169c0.5401,0 0.982,0.885051 0.982,1.966779m20.622,2.950169c0,1.081729 -0.4419,1.966779 -0.982,1.966779c-0.5401,0 -0.982,-0.885051 -0.982,-1.966779c0,-1.081729 0.4419,-1.966779 0.982,-1.966779c0.5401,0 0.982,0.885051 0.982,1.966779m0,6.883728c0,1.081729 -0.4419,1.966779 -0.982,1.966779c-0.5401,0 -0.982,-0.885051 -0.982,-1.966779c0,-1.081729 0.4419,-1.966779 0.982,-1.966779c0.5401,0 0.982,0.885051 0.982,1.966779m-20.622,-0.114319c0,0.905948 4.04584,2.291298 4.719738,1.615218c0.212358,-0.212658 0.095745,-0.859237 -0.26023,-1.435749c-0.779463,-1.261197 -4.459508,-1.409935 -4.459508,-0.179469m-4.91,1.960633c0,0.474486 -0.62357,1.381663 -1.385848,2.01472c-1.538058,1.278407 -3.11294,-0.174552 -2.051153,-1.894255c0.747548,-1.212028 3.437,-1.30545 3.437,-0.120465m25.532,4.545719c0,0.811297 -0.4419,1.475085 -0.982,1.475085c-0.5401,0 -0.982,-0.663788 -0.982,-1.475085c0,-0.811297 0.4419,-1.475085 0.982,-1.475085c0.5401,0 0.982,0.663788 0.982,1.475085m-33.388,2.950169c-0.693538,0.837111 -1.48282,1.301762 -1.75287,1.03133c-0.27005,-0.270432 0.077333,-1.177609 0.77087,-2.01472c0.693538,-0.837111 1.48282,-1.301762 1.75287,-1.03133c0.27005,0.270432 -0.077333,1.177609 -0.77087,2.01472m26.514,-0.491695c0.578153,1.081729 0.882573,1.966779 0.67758,1.966779c-0.204993,0 -1.17349,-0.885051 -2.15058,-1.966779c-0.97709,-1.081729 -1.282738,-1.966779 -0.67758,-1.966779c0.605158,0 1.572428,0.885051 2.15058,1.966779m-74.632001,4.787879c0,4.280204 1.819155,5.023892 12.275,5.023892c10.455845,0 12.275,-0.743688 12.275,-5.023892l0,-3.804489l-12.275,0l-12.275,0l0,3.804489m81.506001,0.251994c0,1.298074 -0.708268,1.843856 -2.393625,1.843856c-1.735685,0 -2.355573,-0.507675 -2.256145,-1.843856c0.09329,-1.226779 0.89362,-1.843856 2.394853,-1.843856c1.550333,0 2.254918,0.576512 2.254918,1.843856m-29.46,0.860466c0,0.540864 -0.8838,0.98339 -1.964,0.98339c-1.0802,0 -1.964,-0.442525 -1.964,-0.98339c0,-0.540864 0.8838,-0.98339 1.964,-0.98339c1.0802,0 1.964,0.442525 1.964,0.98339m6.874,0c0,0.540864 -0.8838,0.98339 -1.964,0.98339c-1.0802,0 -1.964,-0.442525 -1.964,-0.98339c0,-0.540864 0.8838,-0.98339 1.964,-0.98339c1.0802,0 1.964,0.442525 1.964,0.98339m6.874,0c0,0.540864 -0.66285,0.98339 -1.473,0.98339c-0.81015,0 -1.473,-0.442525 -1.473,-0.98339c0,-0.540864 0.66285,-0.98339 1.473,-0.98339c0.81015,0 1.473,0.442525 1.473,0.98339m7.856,0c0,0.540864 -0.8838,0.98339 -1.964,0.98339c-1.0802,0 -1.964,-0.442525 -1.964,-0.98339c0,-0.540864 0.8838,-0.98339 1.964,-0.98339c1.0802,0 1.964,0.442525 1.964,0.98339m23.568,8.850508c0,1.902859 0.654258,1.966779 20.131,1.966779c19.476743,0 20.131,-0.06392 20.131,-1.966779c0,-1.902859 -0.654258,-1.966779 -20.131,-1.966779c-19.476743,0 -20.131,0.06392 -20.131,1.966779m-343.700003,23.54358c0,14.461975 0.355975,22.675738 0.982,22.675738c0.626025,0 0.982,-8.012168 0.982,-22.068495c0,-13.650679 -0.374388,-22.299592 -0.982,-22.675738c-0.64321,-0.398273 -0.982,7.200871 -0.982,22.068495m210.148002,28.096674l0,47.706695l35.1065,-0.25814l35.1065,-0.25814l0.25532,-47.448555l0.254093,-47.448555l-35.360593,0l-35.36182,0l0,47.706695m78.560001,-22.715074l0,24.991621l11.0475,0.481861c6.076125,0.264286 13.257,0.940366 15.9575,1.500899c6.286028,1.30545 34.81681,1.326347 41.244,0.029502c2.7005,-0.545781 9.881375,-1.230466 15.9575,-1.523025l11.0475,-0.53226l-0.096973,-23.740258l-0.0982,-23.741487l-2.34207,7.365589c-3.508195,11.026258 -3.286018,10.61938 -4.72342,8.664893c-0.676353,-0.91824 -2.289288,-5.454125 -3.5843,-10.079745l-2.355573,-8.409212l-41.026733,0l-41.026733,0l0,24.991621m83.991688,-23.516537c0.252865,0.811297 0.758595,2.249504 1.121935,3.196017c0.364568,0.946513 1.387075,3.933559 2.272103,6.637881l1.609253,4.916949l1.293785,-5.408644c0.71195,-2.974754 1.61048,-5.851169 1.995915,-6.392033c2.613348,-3.668044 2.029058,-4.425254 -3.413678,-4.425254c-4.29625,0 -5.250018,0.288871 -4.879313,1.475085m-167.789432,24.748232c-0.817515,0.819901 -0.872753,39.917019 -0.057693,42.04237c0.327743,0.855549 1.211543,1.554985 1.964,1.554985c1.128073,0 1.367435,-3.869639 1.367435,-22.126269c0,-21.962781 -0.36825,-24.379461 -3.273743,-21.471086m83.797743,47.471911l0,21.693578l12.0295,-0.133987c11.340873,-0.125382 11.62688,-0.175781 4.999608,-0.873988c-9.804043,-1.035018 -12.772138,-2.994422 -14.079425,-9.301638c-2.058518,-9.929778 0.862933,-21.071584 6.494703,-24.766671c5.830625,-3.825386 70.586161,-3.792197 76.425378,0.039336c5.123585,3.361964 6.430873,7.017715 6.434555,18.003408c0.00491,12.816027 -1.295013,14.331676 -13.744318,16.036628c-4.599443,0.629369 -3.76106,0.758439 5.6465,0.867841l11.0475,0.12907l0,-21.693578l0,-21.694807l-11.0475,0.409336c-6.076125,0.22495 -13.03605,0.896114 -15.4665,1.491065c-2.43045,0.59618 -11.9313,1.082958 -21.113,1.082958c-9.1817,0 -18.68255,-0.486778 -21.113,-1.082958c-2.43045,-0.594951 -9.390375,-1.266114 -15.4665,-1.491065l-11.0475,-0.409336l0,21.694807m-94.939761,-14.369783c-3.337573,1.175151 -6.32408,2.398242 -6.63832,2.719073c-0.467678,0.479403 12.670255,4.825985 14.586383,4.825985c0.316695,0 0.575698,-2.212627 0.575698,-4.916949c0,-5.65695 0.045418,-5.643428 -8.52376,-2.628109m118.507761,0.544552c-5.67105,0.38721 -11.1948,1.221862 -12.275,1.854919c-3.1424,1.843856 19.22265,1.559902 28.49764,-0.361396c7.00166,-1.449271 8.256165,-1.445583 16.063065,0.055316c10.675568,2.051597 32.830715,1.88565 26.143295,-0.196678c-4.744288,-1.476314 -43.447363,-2.372428 -58.429001,-1.352161m18.658,3.112429c-2.97055,0.409336 -11.909205,0.786712 -19.863405,0.840798c-13.878115,0.093422 -14.517643,0.186844 -15.85439,2.309737c-1.73814,2.758408 -2.817113,13.841211 -1.795833,18.438558l0.764733,3.441864l17.637948,0.80638c22.44852,1.025184 27.50582,1.027642 49.061948,0.019668l17.676,-0.826047l0,-11.101241c0,-13.66543 1.68904,-12.598452 -20.952198,-13.240114c-10.08023,-0.286412 -18.990653,-0.72525 -19.800803,-0.976014c-0.81015,-0.250764 -3.90345,-0.121694 -6.874,0.286412m-29.951,28.646143c2.1604,0.431462 18.0688,0.784253 35.352,0.784253c17.2832,0 33.1916,-0.352791 35.352,-0.784253c2.218093,-0.443755 -13.169848,-0.784253 -35.352,-0.784253c-22.182153,0 -37.570093,0.340499 -35.352,0.784253m-196.400002,6.710406c0.342473,0.554386 5.084305,0.98339 10.859693,0.98339c6.180463,0 10.253308,-0.390897 10.253308,-0.98339c0,-0.59618 -4.274155,-0.98339 -10.859693,-0.98339c-6.990613,0 -10.643653,0.350333 -10.253308,0.98339m251.684147,-0.250764c4.481603,0.181927 11.552003,0.181927 15.712,-0.002458c4.159998,-0.184386 0.493455,-0.333123 -8.148145,-0.331894c-8.6416,0.001229 -12.045458,0.151196 -7.563855,0.334353m-226.643147,2.217544c0,0.593722 4.091258,0.98339 10.311,0.98339c6.219743,0 10.311,-0.389668 10.311,-0.98339c0,-0.593722 -4.091258,-0.98339 -10.311,-0.98339c-6.219743,0 -10.311,0.389668 -10.311,0.98339m225.614502,0.731396c4.455825,0.181927 11.747175,0.181927 16.203,0c4.455825,-0.181927 0.81015,-0.330665 -8.1015,-0.330665c-8.91165,0 -12.557325,0.148738 -8.1015,0.330665"
               id="path2"/>
     </g>

     <use id="living_aircon" x="30" y="117" xlink:href="#aircon_svg" style="pointer-events:all;"/>
     <use id="bedroom3_aircon" x="370" y="117" xlink:href="#aircon_svg" style="pointer-events:all;"/>
     <use id="bedroom2_aircon" x="30" y="580" xlink:href="#aircon_svg" style="pointer-events:all;"/>

     <g id="tv" transform="translate(30,163)" style="pointer-events:all;">
         <rect rx="5" ry="5" width="50" height="35" style="fill:none;" />
         <rect rx="5" ry="5" width="50" height="35" style="fill:none;stroke:black;stroke-width:3;" />
         <rect x="10" y="8" rx="2" ry="2" width="30" height="20" style="fill:none;stroke:black;stroke-width:3;" />
     </g>

     <text id="temp1"
           class="temp_text"
           y="280"
           x="40">Temp:</text>
     <text id="temp2"
           class="temp_text"
           y="500"
           x="40">Temp:</text>
     <text id="temp3"
           class="temp_text"
           y="270"
           x="375">Temp:</text>

     <text id="living_light1"
           text-anchor="middle"
           font-size="24"
           y="235"
           x="125"
           stroke-width="0"
           fill="#e7d149"
           class="zmdi zmdi-lamp zmdi-hc-5x">&#xf189;</text>
     <text id="living_light2"
           text-anchor="middle"
           font-size="24"
           y="390"
           x="100"
           fill="#e7d149"
           class="zmdi zmdi-lamp zmdi-hc-5x">&#xf189;</text>
     <text id="bedroom1_light1"
           text-anchor="middle"
           font-size="24"
           y="235"
           x="260"
           fill="#e7d149"
           class="zmdi zmdi-lamp zmdi-hc-5x">&#xf189;</text>
     <text id="bedroom2_light1"
           y="570"
           x="125"
           fill="#e7d149"
           class="zmdi zmdi-lamp zmdi-hc-5x">&#xf189;</text>
     <text id="bedroom3_light1"
           text-anchor="middle"
           y="235"
           x="410"
           fill="#e7d149"
           class="zmdi zmdi-lamp zmdi-hc-5x">&#xf189;</text>
    </g>

</svg>
