<?xml version="1.0" standalone="no"?>
<!DOCTYPE svg PUBLIC "-//W3C//DTD SVG 20010904//EN"
 "http://www.w3.org/TR/2001/REC-SVG-20010904/DTD/svg10.dtd">
<svg version="1.0" xmlns="http://www.w3.org/2000/svg"
 width="260.000000pt" height="260.000000pt" viewBox="0 0 260.000000 260.000000"
 preserveAspectRatio="xMidYMid meet">
<metadata>
Created by potrace 1.11, written by Peter Selinger 2001-2013
</metadata>
<g transform="translate(0.000000,260.000000) scale(0.100000,-0.100000)"
fill="#000000" stroke="none">
<path d="M0 1300 l0 -1300 1300 0 1300 0 0 1300 0 1300 -1300 0 -1300 0 0
-1300z m618 848 c14 -18 202 -556 202 -579 0 -18 -6 -20 -62 -17 l-63 3 -24
68 -23 67 -113 0 -114 0 -16 -57 c-9 -32 -22 -64 -27 -70 -6 -7 -32 -13 -59
-13 -47 0 -49 1 -49 28 0 25 167 520 190 563 9 16 22 19 79 19 43 0 72 -5 79
-12z m614 -175 l30 -31 43 30 c83 59 186 44 230 -32 17 -31 20 -57 23 -207 l4
-172 -24 -6 c-14 -4 -40 -5 -59 -3 l-34 3 -6 150 c-6 158 -10 180 -40 195 -29
16 -46 12 -83 -21 l-35 -31 -3 -146 -3 -147 -55 0 -55 0 -5 163 c-4 147 -7
165 -24 178 -30 21 -52 17 -90 -17 l-35 -31 -3 -146 -3 -147 -55 0 -55 0 0
220 0 220 45 0 c42 0 45 -2 50 -29 5 -27 6 -28 19 -12 53 63 169 73 223 19z
m780 0 l30 -31 43 30 c83 59 186 44 230 -32 17 -31 20 -57 23 -207 l4 -172
-24 -6 c-14 -4 -40 -5 -59 -3 l-34 3 -6 150 c-6 158 -10 180 -40 195 -29 16
-46 12 -83 -21 l-35 -31 -3 -146 -3 -147 -55 0 -55 0 -5 163 c-4 147 -7 165
-24 178 -30 21 -52 17 -90 -17 l-35 -31 -3 -146 -3 -147 -55 0 -55 0 0 220 0
220 45 0 c42 0 45 -2 50 -29 5 -27 6 -28 19 -12 53 63 169 73 223 19z m-1138
-984 c50 -14 86 -50 86 -86 0 -54 -12 -59 -71 -29 -96 48 -175 27 -219 -60
-34 -66 -35 -197 -2 -261 43 -82 121 -103 217 -59 31 14 61 23 66 20 17 -10
10 -80 -10 -98 -26 -24 -104 -46 -161 -46 -108 0 -193 48 -238 133 -25 48 -27
61 -27 172 0 112 2 124 29 179 57 116 195 172 330 135z m469 -163 c84 -30 121
-95 121 -211 0 -167 -88 -254 -247 -243 -117 8 -177 60 -197 171 -26 140 32
252 150 288 40 12 132 9 173 -5z m547 -4 c59 -32 71 -71 77 -252 7 -181 4
-190 -57 -190 -72 0 -70 -5 -70 166 0 141 -2 156 -20 174 -28 28 -64 25 -104
-11 l-35 -31 -3 -146 -3 -147 -55 0 -55 0 0 220 0 220 45 0 c42 0 45 -2 48
-28 l3 -27 32 25 c65 48 137 58 197 27z"/>
<path d="M496 1923 c-21 -65 -41 -124 -43 -130 -4 -10 16 -13 82 -13 78 0 86
2 81 18 -3 9 -23 68 -44 130 l-37 113 -39 -118z"/>
<path d="M1178 721 c-30 -27 -33 -34 -36 -102 -4 -96 16 -140 70 -153 51 -13
96 8 114 50 18 43 18 135 0 179 -26 62 -94 74 -148 26z"/>
</g>
</svg>
